<mxfile host="app.diagrams.net" agent="Mozilla/5.0 (Windows NT 10.0; Win64; x64) AppleWebKit/537.36 (KHTML, like Gecko) Chrome/138.0.0.0 Safari/537.36" version="27.1.6">
  <diagram name="PÃ¡gina-1" id="j8_i7yG53qXhzVox8bQH">
    <mxGraphModel dx="1181" dy="653" grid="1" gridSize="10" guides="1" tooltips="1" connect="1" arrows="1" fold="1" page="1" pageScale="0.75" pageWidth="827" pageHeight="1169" math="0" shadow="0">
      <root>
        <mxCell id="0" />
        <mxCell id="1" parent="0" />
        <mxCell id="qm2k_FCWnXqwcVjh3l4h-1" value="" style="group;fillColor=none;" vertex="1" connectable="0" parent="1">
          <mxGeometry x="10" y="30" width="400" height="600" as="geometry" />
        </mxCell>
        <mxCell id="OCyMKSeDgme2RKEGwc1d-1" value="AWS EC2&lt;div&gt;Ubuntu 24.04 with&lt;/div&gt;&lt;div&gt;Nvidia GPU for DL&lt;/div&gt;" style="outlineConnect=0;dashed=0;verticalLabelPosition=bottom;verticalAlign=top;align=center;html=1;shape=mxgraph.aws3.ec2;fillColor=#F58534;gradientColor=none;" parent="qm2k_FCWnXqwcVjh3l4h-1" vertex="1">
          <mxGeometry x="310.8532495874807" y="237.98252235884186" width="54.292862085484636" height="71.39475670765255" as="geometry" />
        </mxCell>
        <object placeholders="1" c4Name="Data Collector" c4Type="Container" c4Technology="Spring Boot, Kotlin" c4Description="Trafficformer Data Collector" label="&lt;font style=&quot;font-size: 16px&quot;&gt;&lt;b&gt;%c4Name%&lt;/b&gt;&lt;/font&gt;&lt;div&gt;[%c4Type%:&amp;nbsp;%c4Technology%]&lt;/div&gt;&lt;br&gt;&lt;div&gt;&lt;font style=&quot;font-size: 11px&quot;&gt;&lt;font color=&quot;#E6E6E6&quot;&gt;%c4Description%&lt;/font&gt;&lt;/div&gt;" id="OCyMKSeDgme2RKEGwc1d-10">
          <mxCell style="shape=hexagon;size=50;perimeter=hexagonPerimeter2;whiteSpace=wrap;html=1;fixedSize=1;rounded=1;labelBackgroundColor=none;fillColor=#23A2D9;fontSize=12;fontColor=#ffffff;align=center;strokeColor=#0E7DAD;metaEdit=1;points=[[0.5,0,0],[1,0.25,0],[1,0.5,0],[1,0.75,0],[0.5,1,0],[0,0.75,0],[0,0.5,0],[0,0.25,0]];resizable=0;" parent="qm2k_FCWnXqwcVjh3l4h-1" vertex="1">
            <mxGeometry x="21.291318464895937" y="7.676855559962641" width="200" height="170" as="geometry" />
          </mxCell>
        </object>
        <mxCell id="OCyMKSeDgme2RKEGwc1d-11" value="" style="shape=image;html=1;verticalAlign=top;verticalLabelPosition=bottom;labelBackgroundColor=#ffffff;imageAspect=0;aspect=fixed;image=https://cdn2.iconfinder.com/data/icons/boxicons-logos/24/bxl-spring-boot-128.png" parent="qm2k_FCWnXqwcVjh3l4h-1" vertex="1">
          <mxGeometry x="75.22932524263231" y="7.676855559962641" width="34.0661095438335" height="34.0661095438335" as="geometry" />
        </mxCell>
        <object placeholders="1" c4Type="Relationship" c4Technology="JSON/HTTP" c4Description="Euskalmet &amp; Traffic API" label="&lt;div style=&quot;text-align: left&quot;&gt;&lt;div style=&quot;text-align: center&quot;&gt;&lt;b&gt;%c4Description%&lt;/b&gt;&lt;/div&gt;&lt;div style=&quot;text-align: center&quot;&gt;[%c4Technology%]&lt;/div&gt;&lt;/div&gt;" id="OCyMKSeDgme2RKEGwc1d-12">
          <mxCell style="endArrow=blockThin;html=1;fontSize=10;fontColor=#404040;strokeWidth=1;endFill=1;strokeColor=#828282;elbow=vertical;metaEdit=1;endSize=14;startSize=14;jumpStyle=arc;jumpSize=16;rounded=0;edgeStyle=orthogonalEdgeStyle;exitX=1;exitY=0.5;exitDx=0;exitDy=0;exitPerimeter=0;entryX=0.5;entryY=1;entryDx=0;entryDy=0;" parent="qm2k_FCWnXqwcVjh3l4h-1" source="OCyMKSeDgme2RKEGwc1d-10" target="OCyMKSeDgme2RKEGwc1d-13" edge="1">
            <mxGeometry x="0.4294" y="-15" width="240" relative="1" as="geometry">
              <mxPoint x="156.13633540923686" y="40.68733446780199" as="sourcePoint" />
              <mxPoint x="224.26855449690387" y="-61.41484447970113" as="targetPoint" />
              <mxPoint as="offset" />
            </mxGeometry>
          </mxCell>
        </object>
        <mxCell id="OCyMKSeDgme2RKEGwc1d-13" value="" style="shape=image;verticalLabelPosition=bottom;labelBackgroundColor=default;verticalAlign=top;aspect=fixed;imageAspect=0;image=https://opendata.euskadi.eus/images/webopd00-logo_opendata.gif;" parent="qm2k_FCWnXqwcVjh3l4h-1" vertex="1">
          <mxGeometry x="234.20450311385528" width="161.1043097177126" height="37.61466262131616" as="geometry" />
        </mxCell>
        <mxCell id="OCyMKSeDgme2RKEGwc1d-20" value="" style="sketch=0;points=[[0,0,0],[0.25,0,0],[0.5,0,0],[0.75,0,0],[1,0,0],[0,1,0],[0.25,1,0],[0.5,1,0],[0.75,1,0],[1,1,0],[0,0.25,0],[0,0.5,0],[0,0.75,0],[1,0.25,0],[1,0.5,0],[1,0.75,0]];outlineConnect=0;fontColor=#232F3E;fillColor=#C925D1;strokeColor=#ffffff;dashed=0;verticalLabelPosition=bottom;verticalAlign=top;align=center;html=1;fontSize=12;fontStyle=0;aspect=fixed;shape=mxgraph.aws4.resourceIcon;resIcon=mxgraph.aws4.documentdb_with_mongodb_compatibility;" parent="qm2k_FCWnXqwcVjh3l4h-1" vertex="1">
          <mxGeometry x="255.49582157875122" y="152.12456977621966" width="55.357428008729435" height="55.357428008729435" as="geometry" />
        </mxCell>
        <mxCell id="OCyMKSeDgme2RKEGwc1d-21" value="" style="shape=image;verticalLabelPosition=bottom;labelBackgroundColor=default;verticalAlign=top;aspect=fixed;imageAspect=0;image=data:image/png,iVBORw0KGgoAAAANSUhEUgAABLAAAAGQCAYAAAC+tZleAAAABGdBTUEAALGPC/xhBQAAACBjSFJNAAB6JgAAgIQAAPoAAACA6AAAdTAAAOpgAAA6mAAAF3CculE8AAAABmJLR0QAAAAAAAD5Q7t/AAAACXBIWXMAAABIAAAASABGyWs+AAAAB3RJTUUH6QURBSUm4e/IkQAAgABJREFUeNrsnXeAJVWZ9n+nuycwzMAMQ85cBpRwiQIDmL1rps26umaFNe2n3bvqGnddc+oG1l0jZl0DutoGdLeNayArtEpuJA15ZpiBydPn++OcqjpVt27Hqts3PD8tpm/dyume89T7Pi8IIYQQQgghhBBCCCGEEEIIIYQQQgghhBBCCCGEEEIIIYQQQgghhBBCCCGEEEIIIYQQQgghhBBCCCGEEEIIIYQQQgghhBBCCCGEEEIIIYQQQgghhBBCCCGEEEIIIYQQQgghhBBCCCGEEEIIIYQQQgghhBBCCCGEEEIIIYQQQgghhBBCCCGEEEIIIYQQQgghhBBCCCGEEEIIIYQQQgghhBBCCCGEEEIIIYQQQgghhBBCCCGEEEIIIYQQQgghhBBCCCGEEEIIIYQQQgghhBBCCCGEEEIIIYQQQgghhBBCCCGEEEIIIYQQQgghhBBCCCGEEEIIIYQQQgghhBBCCCGEEEIIIYQQQgghhBBCCCGEEEIIIYQQQgghhBBCCCGEEEIIIYQQQgghhBBCCCGEEEIIIYQQQgghhBBCCCGEEEIIIYQQQgghhBBCCCGEEEIIIYQQQgghhBBCCCGEEEIIIYQQQgghhBBCCCGEEEIIIYQQQgghhBBCCCGEEEIIIYQQQgghhBBCCCGEEEIIIYQQQgghhBBCCCGEEEIIIYQQQgghhBBCCCGEEEIIIYQQQgghhBBCtABGh6B9ee3PXtdjjNnXYLb8x+M/sVZHRAghhBBCCCGEEJ1Ijw5B+7Kgt693x86dpz20bcvjdDSEEEIIIYQQQgjRqUjAaueT19PTu9NOnLFp29anmncdtouOiBBCCCGEEEIIIToRCVhtzNYd282ivgW7T1j7qEP33OcROiJCCCGEEEIIIYToRCRgtTHW2j5jzN4TExNHLFm46LH7fPTEBToqQgghhBBCCCGE6DQkYLU1dqG19uje3l56enuftWTR4kN1TIQQQgghhBBCCNFpSMBqbw6x2L0W9PbR29NzXI8xTz/iPx7Zp8MihBBCCCGEEEKITkICVpvymp+9xgCPwbJLb4+h1/T0YsxzgZU6OkIIIYQQQgghhOgkJGC1Kdayu7X0W1i0sLePBX29gD0ROOuI/3ik0RESQgghhBBCCCFEpyABq02xlicBx4IFDD0YgF2AlwD76QgJIYQQQgghhBCiU5CA1YacPfr3h2B4ucXuaS0s6O1lQW8vWLCWE6ylX0dJCCGEEEIIIYQQnYIErDbjVT89exHWvgRsDevGGWMAE33cDexzVv37mYfoaAkhhBBCCCGEEKITkIDVRrzionN6jOGpwOuspc9lDbqwq76eXnowGGsxcLoxtqYjJoQQQgghhBBCiE5AAlab8Kr/Odv09NjTgHdbG3lcWax1LliL+vro6zGAxWB3NZhXHfGJMys6ckIIIYQQQgghhGh3JGC1CRZ7KPAuC8dHY8Jv058NwGkGnn3kJ85coKMnhBBCCCGEEEKIdkYCVhvwip++uoLlY9bYJ2ExkVhlXQFCsNDb0+u9sFLn9vXAw3QEhRBCCCGEEEII0c706hC0Li+76FU9J7zkxJMMfMAYnokxPQaD06ncv5GB+9Yd21n74EZ2TkyEQtYywKx86sG/uv/Ht23XERVCCCGEEEIIIUQ7ogisFuWlP3lFD8Y+E8t/WuwzrC8zaI2PvIpSBqPMQZu7mF7gucCTdUSFEEIIIYQQQgjRrkjAakFe+qOXL8bav7fWDgOnAjkClfGjnf+VD8TKY2/gdUd+4swjdGSFEEIIIYQQQgjRjkjAajFe/OOXrbDYN1vLe4GDncdVpExZF37lP9ogCGth3wJ6TcPT+Xjg5Ud+4szFOsJCCCGEEEIIIYRoN4wOQWvwqB+/yxzCLQcY+EeLea3BLDLGOD8r67yujAGDAWNw/4vGGzZt3cqf7riFh7ZuyZq5R9wKvBoYvf4Nv7U64kIIIYQQQgghhGgXFIHVIhxs/7rKWj5i4Q3AInxqoI0irtzHIJMwNL+alh51MPBWoKKjLYQQQgghhBBCiHZCAlYL8KIfvvgICx8A+3ygL1KqbKBLWeM+mOiLKH0wM90UPA5455GfOHMPHXUhhBBCCCGEEEK0C706BPPH87//YnPci6unYPiogacbTG+U/henCvrUQReGZdz/TfA3PrXQGO7ZsJ5tO3bUpRDa5A8DHGVhlxVPPfiSdRfdtkVnQQghhBBCCCGEEK2OBKx54vk//FvTY8zpxnAehsd4qQpiQcpNl8hZJuODBcYm4lWP6eHuB9axZcd2N3Ng8B7hkw37gKOAzSueevAf1l1023adDSGEEEIIIYQQQrQySiGcL2zPGRb7cQunJWJTJhcw9Lwy/nvrvwgn8+MmgAnrh/BvPwSZh8uBfzLw2sq/n7lIJ0MIIYQQQgghhBCtjCKw5oHn/+BvzzDwcTCrk8gqC0FlQUinEUYRV5gkdZBgOmNgzXofgUUQvhXNYsjWnNwVONnA1j1cJNYOnRkhhBBCCCGEEEK0IkaHoHk87wcvMhZ7eg92CMxpUcpgj/e4itMD478B2+PEpx6TpAySFrUij6wrbr2ZBzY9hDEmty6hyR93P/B+A5+64R9+u1lnSQghhBBCCCGEEK2GUgibiLUTx2Dtx5K0QedKlao2CLHSZP1/40kNKUf2LAt7e/16bBR81XDoAYxb/Uosb7GW5x1+3pl9OktCCCGEEEIIIYRoNZRC2CSe+/3nH4HhQ2AeHxUWjKoJhgbtwKRphFH1QYxJ0git++eBTZt4cOsWkqX69EHbONTOi2dLgWON4fY9nnLw9Wsvus3qjAkhhBBCCCGEEKJVUARWE3j2955/uMV8wFqeDvRYCwRpfnGklaWueqCNo67qDd7zqBOqouXZ/MEkHllHAB8Bzlp1viKxhBBCCCGEEEII0TpIwCqZZ33/efti+BeLfY6BXhcuFWpSFky6/qAbHcpbgbhl8KqW/8765dnJh0CoSg0ZKsAQ0L/q/DMX6OwJIYQQQgghhBCiFZCAVSLP/P5zVwJvsdjn4y2ngFT0VDq4KgiXIhOFRTiPxYbf56x7CqFqMg4DPgw8ddX5ZyrFVAghhBBCCCGEEPOOBKySeOb3nrsYy+vAvhZYVK822ZQpeyJKpcWrhCgSK5jPNswknCurgPcAq1edf6YqVQohhBBCCCGEEGJekYBVAs/83nMXAq8B3mhhcTTeBiqWtWEEVQMlKkwjtKSrFfp4LuO/sMCiBX3eur0QjselEz5CIpYQQgghhBBCCCHmEwlYBfP07z2zx2KfZrFvAlbGwpTxIlS921U9xn3XOLoqidKy8fTQ19M703TBqTgV+HecmCWEEEIIIYQQQggxL0jAKpCnfOs5psf2PtJi/wXLIck3GTEqML6yxsbmWHH6YBBqZUMBLIq2Cg2wMssrgVPAvnvV+acfrjMshBBCCCGEEEKI+UACVoH09U1UwL4by/Gu0mAkSEVTZHyuYuEq/jqVJlgnSoWZhiZMPUwvd/rYzJA3zvYA/cD7V51/xn46y0IIIYQQQgghhGg2ErAK4unfeeYK4J3W8rjYZT2OnvKfA9P2FIaMcmXiKKxGpu6ReGWZbuyVJV+wyk6TO20vmGcBb191/hm762wLIYQQQgghhBCimUjAKoCnffdZi4E3Ai9wx9RirTOjcgFSFm+3HmOjyCnvi2VT3lVu+vS0xD5aabHLNkghnEqsajRdtO7swELglcCbVp1/xq4660IIIYQQQgghhGgWErDmyJO+298H9gUY8xoLu0SiFJCKrEql/tkcp/U4FdBm0giJtaxUTFakM9n0ImwqiipvJVlRK1esajTnEgtvnIAXH3r+Gb06+0IIIYQQQgghhGgGErDmegCtWW3hzWD3aRToZOs+2SmngjBKyzaYI+19taivjyTuK0+Iqheq7CTDRDAE41dYeGuP5SmV884wugKEEEIIIYQQQghRNhKw5sBTLuw/CHgH1h5TH/dko8xB/7Heyyo2cbeAMenYqDqHd/8xjrqqN3hf0NuLMY01pclcsCYTsrIjjOUw4D3G8ghdBUIIIYQQQgghhCgbCViz5CkX9i8FMwg8Ic4INFEZwXTElMlLI8QmMVAm1KScQlSXZWjTBus2tKsK/bZSU02jxiCNxSrjhwacBLzv8PPOqOhqEEIIIYQQQgghRJlIwJoFT77wab0W+wKwLwEWhAUHIR2FlfquUWXBPP/18I+MAJYVt2zgizWZUJVJBZy2WGVIvo8H98UTgHcfft4Z++iqEEIIIYQQQgghRFlIwJoFlp5TLQwCK0Oxyf0ZOa4HYlXKbD2TGhiO99NFMVxhLFeOQxaRPxZBWmEsVNn0gK0XoaKtzROn6izd833ee4HnAmcfft4Zu+jKEEIIIYQQQgghRBlIwJohT7rw6ft58eroPD+rJI0wE5VlcsYFKpa19ZFbdYRphJZUtUIbLK1RXcE8sSpOQ5y8COFk7Aq8Bnja4eedoetJCCGEEEIIIYQQhSPBYQbULjxroYWXAc9wglPaCr1Oc7I5X6SErqxb1iQ5fNgG3wbbEIhSxk5TrCqmjuABwLuAk3WVCCGEEEIIIYQQomgkYE2Tv/n60wwT9gnW8gYsC+JMwfg/7g8LgSjko65MNqLKZj/mThunDwahVqlIr6zHVoihLLGqEccB75AflhBCCCGEEEIIIYpGAtY0sb0cDPat1nJAnY9VLDTlzBf9x4SCVPJtyufK1s9n65Wu1Mdw+T09Zr4P01OBNxx+3hmLdcUIIYQQQgghhBCiKCRgTYPHfeupC62xr8FyBuRnBtZFTaXGB+7sAMZ/NuSHTxkyypWJo7DyTd2dDLaobwGGeRWxFgB/jzN2F0IIIYQQQgghhCgECVjTwMBTgJda7IKUdGRcel8qbdBm0wrdB2sN8WjrQqbqTeAjM3frI7YI5CqTmZbYRytapzEG5j0Ii72Afzr8vDNO05UjhBBCCCGEEEKIIpCANQWP++ZTDgHeAOwfB1LZacxoklgpG5YHzFYoNMTiVopYBbP16wv9t6KYrHrVbD45HhiQH5YQQgghhBBCCCGKQALWJDzuG09eaOFF1trHZ1P2bEqIsilhytZ5ZJGZO/spb3pbF0yVRGnZ1pGqGnMW8LLDzztjoa4kIYQQQgghhBBCzAUJWA047StPMBZWG2tfGx6nOunI5ERk2Ux0VPR3mAkYCmAZiyw3nYmlLRtMX+fjHvlotZ6otQQXuXb64eedYXRFCSGEEEIIIYQQYrZIwGrA4r6+5cBbgIMiASlPbIoIM/jijECTfJGyZLf1RuzWBNbwhnRaoLHY/HAsUhFcrReXdRDwb/5fIYQQQgghhBBCiFkhAasRhhdZax9tcYJTSmzyKYNxGqGJJKokSsqmpyb8IqlQGMRppVeQxmb+yAhg1tDKKYWnA687/LwzFuuiEkIIIYQQQgghxGyQgJXDo7/xxBOBVwLLcieYLCEuEJvSllaBWGWoF6XSk0EwXeSrZclJYQxX3EIqlrXxsMBaXmwtNV1ZQgghhBBCCCGEmA0SsDI88htP3MXCCyycFI0LI6ZSgVKWlDdVGIU1aeVBkpTBVDXCIBXQZqK46ryvUiuxmS+aSyBWxUOGA4DBw4bPOFRXmBBCCCGEEEIIIWaKBKws1q4GXg54g/aUjET6g500ja9Ox8mzqgojrmzDL9OY5LuGFQ1LOzxTilWNpn20Mbywcu4ZC3SRCSGEEEIIIYQQYiZIwAp45NefuDvwJgv72AYpgI1S/6JRNjNNbPwezGONrVPD6iK7cqa1cXRXXsSV+6Onp7hTOgexCgBjUkMv8DrgzMq5qkoohBBCCCGEEEKI6SMBy/PIr9eMwZ4FPC6l1AQpgBGWpNJgKo0wNUW+4BNrUyYUpKJ12bR4ZevnS4/LRocZFvX1MblJV7LdodjUSKyaroCVEasacSAwAKzUFSeEEEIIIYQQQojpIgHLY6052MLrsfXG7WFins3xm0pnBmbFrszYOCQriMIyhnyTq+h7MuqRCaKwbCxeAfSYnpSAlCdMZYWoyUSsaQpTM+ExwHN0xQkhhBBCCCGEEGK6SMCKsX9nsSfEn2xS+Y9wJGRS+tLRWrY+O7De2gqL9SFciRm7yXG/svF2YEIhzYdwES47qVU4m5S/PLHKlJPotzvwmsq5Z5yka04IIYQQQgghhBDTQQIWcPrXa1VreDawGEjyAyOySo4J/m0kFGVHGpsSpZL5c6oR2hzlKBSpsuubQmiaR7GqEScAL6qce8auuvqEEEIIIYQQQggxFV0vYJ3x9dpi4PnAiUn0VL2nVRT95CyvbH2iYCREZdL9LEHaYYOIqIaVBDNRW1mNyQbGWJPVHpxnsaoRLwHO0C0ohBBCCCGEEEKIqeh6AWuntQ/D2hfZ+FgE4pMXiMIUQGPzPa7S4+pH2LqpbZQ5GK4s1yLLTWfSXltBOqNttN6WJJYB9wb7msq5py/XbSiEEEIIIYQQQojJ6GoBa/VXH7/Yi1eHAbFw5Mim9mUq/kVRT3Eaoc1EXiWfbSblMCVk2UQUS3lgmUCWMhmvK2PrshxbU72yOUOKJwHPq5y72uhWFEIIIYQQQgghRCO6WsCaMGYV8ALiOCibTvlzo4jFLB/tZDIpe9lKg9Y0MHJPTR0sN/4YxGnVO7rnfA7KB86rgmWZhliVMy27Aq8Cs0q3ohBCCCGEEEIIIRrRtQLWqV97fA/YVwEHJhFVQSDQ5LZVacLIrUnEpryKhlGFwTpRKj0ZZKazeWJbKWQFqUZC1XRFLBMMgDN0f75uRSGEEEIIIYQQQjSiawUsCydZeJo19KZM0BukEdrMZ/eHzVQPTBuw23DOySoP2iRlMLW8QByKor9ssvD8vZrrUZlUgJpMrDINhilZBLygcu7pp+h2FEIIIYQQQgghRB5dKWCd/LXH91rsC4F06ppNYppSnlOB+GRtNgEw/aFhGiH55u7RcusjuGwqfTH5MkekMklE1vSYbcrfZGLVnKgCz6yce/oi3ZJCCCGEEEIIIYTI0pUCloFTwDyVSHlJZQ4a/zkQqvIEIpvNMcz6ZpGjQQXG78GE1tqMBpTx2Ap9uIIKhTacv34rgjGNUv7yKF2sarTW51s4WbekEEIIIYQQQgghsnSdgHXCVx+32Fp7loWH2yDaKh2DlBF3AoEoTAEMp46qAlqbM382jbDBom1duqFNi1de/bLRf21mmXElxOn4UzUSoooVqxrGeQUjrCusuMpYXlkZOn2JbkshhBBCCCGEEEKEdJ2A1WPtoRae1nACa9MxSnmiE6E0VF+xMB3jlBW78sYaF0UVC1emfsUpM/esB5ZpsIVNj6KqX7OtH7K7ZpJ/zzJwcmX4dKNbUwghhBBCCCGEEBFdJWCd+NXH9QFPAY51kUpOKKoXqkxdJJW1U6cR2hxlxtp6r6z69fltiXyzbBxjlSEwczf14zHQY+ZRrCJHrGpAA2FrLwyvNs7YXQghhBBCCCGEEALoMgHLwkprzAuxttd/rjNdj8WlUPexGRHIZD8H/8ZZfJOkIYJLD/RbZesNrzLVDU3uzkSSWjS/ARYvXFDGcZueWGXr5bK86UwmKMwmg7Hw+Al4lG5NIYQQQgghhBBCRHSNgHXCVx9ngKcCx0IDs/OMIXsSPVXvaZUSdKxtkCgYma6n3bVsbtRXji98ag6YQZnBaTEtfyoapwE2irgKY7+iaLG6AZjwQ7j+CTjQwgsOGz59qW5PIYQQQgghhBBCQBcJWNbapVj7AmvZJRFqLBaTSv2bzNDdhh5XkVhjG0lX5CwhOyKYOgyjCj7HVQtDqy2biEDJ4uyk+tZMoqhCYlGqkZdVNpIq9xhOXgsxO87A3wCn6/YUQgghhBBCCCEEdFMKoeVxFo4H4hTAOoHF2JyKg+EUYWpfRuKKorDiNEKbibxKPluTXb5NxtlEFEttnwkkH5NacZCOmNkfZiZWwYxT/qZV73CqWog5jl0HA/2HDZ++TLeoEEIIIYQQQgghukLAOuYrj11s4enAvvl5e42Mzm2YwBeNIptiaDIphNlKg2G0VPRFIuzYumivbFSW9TNktLTMNkGgkc3an4pGYhXTG8JNyomsmom9/JOBVbpFhRBCCCGEEEII0S0RWMdZY8+IdR5vsp4KZIoxQURVILHk+lM1IIzcaiQ2NTDAspHS1HC65A9rqKuAaPw0k5msT8efKvKoygpReeMaHYIZ1UGMItZiIzC7Cmufe9jHT1NFQiGEEEIIIYQQosvpeAHr5M89qsdY+yhrzdFxFNNkqW8+jTCsApiXRmgzn90fNlM9MFiDDa3fg+zCwOQ9XE2UMphaXrC1acP3rARHKpJqspS/1L5PY5hhFFU9oVCVFa3Cady/L8aY/XWbCiGEEEIIIYQQ3U3HC1hbF5j9gScBJvatstb5YNngc14skU0SCJPMQZvKibM2z+6duoitujRCJjF3z43gsoEIFs4QCmTBWDM9b6pZ+FPNjMmEqsmmc+doX+BvDxta3aNbVQghhBBCCCGE6F46XhiwhiqW1enqgRkpxmQ/B/NjgpCmeJnYbNU/m80xzPpmkYhM2SqEJj2htVnDKpsjjgWG8JnlTeZNBfMYWTXZtMbUD7AQeDZwgG5VIYQQQgghhBCie+loAeuYLz9micU8y2KXAVhrYlP2VPSR97uyOQKQnyK94LpKhenvowioZNL82CvbKOgrniqbbmi9cXw43qTM4G1dmmM9Mxar6v2p8oWq6QpY+WJVIx6OM+AXQgghhBBCCCFEl9LRApbF7gP2yamUPBNESoVphA0XYtPZfHmiE2GQVX3FwnQ2YFbsynexsjZMVTRMZuYe71NqCQWl/DX2p5puFNVcWQo88bCh1St1uwohhBBCCCGEEN1JxwpYD//yo4yFpwF7hWmAiSaTJ8w4oaj+a1M3TxQJNVkaoc2uw0TzhfPkCWN+WyLfLL9t9TKVzSzPzuwgFZ/yVxanA6t1uwohhBBCCCGEEN1JxwpYBhZZeIqFxemqfYlIZS3YIAorFUkVmqBH2hbBl6mVmazelfwb6UJ2kjREcOmBfitSX9mcaoS2Xiyy2R3Irqt9xKq8fdvHwpMOHVq9VLesEEIIIYQQQgjRfXSsgDWBOQXsMfXf2HSVv2Rs/XQZQ/Yk2smm9ayM75S1tkGiYGS6no6ZsrlRXzm+8Kk5aBxwNV1/qjwRq8li1WRm89H3Ph3yLAOH6pYVQgghhBBCCCG6j072wHoCcGAsjISVBeOIqrSZO4GZezyKfEP3JKgqrTIZ20i6IrOEvBE2tS2E2x1GYmUEuNw0wulEUTU/kmrK6odZgmC2Qwz8zWFDq/t02wohhBBCCCGEEN1FRwpYD/vSo/bC2pMtprdecHJpgzb0nvJCTipzD7DG5lQcDKcIU/uyZu82JTbZTMSTJflsTXb5NhlnE1EstX0mWJtJb5NbVmsJVXliVaOtajCdAZ5jYDfdtkIIIYQQQgghRHfRkQKWtRxv4YScb+IJckWf6LuG0ooNE/iC2ZMoLIsTnGzdXPX+WuEykigvmxvtlWxbJH7VaWkztXAv5lgzPaEq1OhCpitqeY4DTqsMrTa6dYUQQgghhBBCiO6h4wSsI7/0aGMxJwAHpqv3+TS6oEJgLCj58Kwg6CnABBFVYR7iDDYqjNzKzmcbLDAUq8xk04V/FKvr5IlTebvWSKiaznczZBnwIlv0jgohhBBCCCGEEKKl6TgBy2L3w9jHpKOSbJ0IY30YVJTmV/c96TTCsApg7HdVt9z6iKl09cBgDTbtwBVnFwYm76E2FaUMppaXUcXsrI9ZKSl/xZzPet/5U6zlKN26QgghhBBCCCFE99CJAtZBwOmYJHIq/DbtExWmFJp0xb48OcgmCYQpE/dAfLK2zk499aFhGiGTmLvnRnDZQARLtsVOeXxmlvKXpVSxihzBqn57DwaeqFtXCCGEEEIIIYToHjpKwKp86VF9FlZb2CMtXAUyS5xGaAP7qowMkzU9N5kPJp7RaUsmnZIIBGJYPCL4LvnXZqZJb04kTmWT5myOOJYvXU03qqpRBcAyxKpQAJxKsApn8NPsAjz60I+vXqHbVwghhBBCCCGE6A46SsAysMRinmjjhDvTID0uEoZM/DmdXuj8rmwmRTCbKhj/VVepMC0muVTEaNnp+YOlZGerG2fr0g2tF32SUK1e05M9JtPyp2o07UzJFaf85wk/TDo+5+hEGxQUVDwZOEm3rxBCCCGEEEII0R10lIBlrd0fa08GUlFSdWmEYUqeCSKlwjTCxiuJJ28U+JT20qqvWDiZc5XNHWtcFFa8zSZ3xcZYFvT1psSnZqf8xdFSZMQsP0NdxFUgTBkz7W08CDj50I+rGqEQQgghhBBCCNENdIyAdejnzzAWTgOW2bhyoPvOZgQfG6QBxsJLbhVAN19qWUDs+h4u006dRljnUGUCcSfZOLLWWnHynwkjvkyux1aU/diMlD9sYwP4aYlVZk7bWAMO0C0shBBCCCGEEEJ0Pp0TgWWMwZl7L4mq/6WrAZpMmqD/NxCpnMhi6qOsSJuux9oWwZfpbUmLSyYuWxgLO3WRXtnPJojhsvXTpasbmtxFzIaZ+FPZYIY6catYsSqP1cAq3cJCCCGEEEIIIUTn0zECljHmIKw9Li0ckV8KkElSCnOmiMdkDNmT6Cmb1rNIC2B1UVZhGmHGMyv05KKBxpXjsMV0tKuGVf5s4kWV50+VnZ7sMc4Rq5rAMuAJh3589SLdxkIIIYQQQgghRGfTMQKWtTzCwt6pcaSjsFLjTGreJKWQvMitjCBFdi2J4JPJNcTYRtJVdgl5I2zd9sfbHUZihVULg9Xn+lOR709ly0/5K4OnALvqNhZCCCGEEEIIITqbTjJxPw7MyroKgQE2CLUKs/isMSmj8SiEKBOn5dL6ssJRNior+mhsJtUum0ZoM5FXwbLDsoCR8btJVmOszdm+TMphI3+qBil/bSBW5bEKOF5m7kIIIYQQQgghRGfTEQLWoV84YzewxwK9Nmt+HglGuXJMUKXQZMbFH7OGV+n56xL4cqKwsp5c2UqDob9W9EUyva2T5OqjymzdfKGulhWq2lSsymMpcBZtu/lCCCGEEEIIIYSYDp0SgXWktRwZjrBBpT6bck83iQxkTKpCYMqk3SaSVzYSy/rlp0SxmRioh5Fb9WFi+V+EYpXJn842WFdWqOoEtcefh14Lp1vYQ7eyEEIIIYQQQgjRuXSEgGUtFeAwn/9XZ4ruUv+Cz9i6SCXrw6Ci1MC67yOBK2O6HopJpm65GcerzHw2Y0wVxmnFkwbrS0VVmfo0wvwRHXB+cwbjT6uxHGAsVd3KQgghhBBCCCFE59L2AtaBF5zZZzFHEZh5J6JUIBAZk/aiiqcMRaUwpTAQwhqlEdokgTBl4p4jPtWtLZtlaPKDsXKLKOZGcDUQtNoI22DwQlVqCHZ0f+CxupWFEEIIIYQQQojOpe0FLGNYaS3Hh1FPsVjlpsgRrkxqAbFROtSXKIymIYnCigzVbbQsk/rkxah09JW1GcWqzjeLRPvKTpPx57Ipz65g29uMSaKq0mIVyb/hGfTT9xo44bCPrVYaoRBCCCGEEEII0aF0QgrhCuCoVORTRhtKxCQTjAuHSBgyqenDSK5GVlXZuKc6scwE4lW4RZEIZjMbHC41T+NKjUtP10oyVvYY541sFFWVK2IF/l0p7c59ONIPQgghhBBCCCGE6EDaXsCy2P0xHBYWFEy+C0YEUVLZJaRS8kwQKWVMJnIrb/ZEwrKNVpFeW2L+HkZ+kZ8EaHNlKeNEsXibzTwe/xyxavKUv/SeNBCr6obJeThwrG5nIYQQQgghhBCiM2lrAeuAz69eYOFECwtd2mBguZ7ynjKk7KlsViRK0gCtbRAVFVcwtCmhKo7sysxj7dRphHXSlInmS21c/G86zssEq21O5NW0/akakJciOAuxqtHWnXLYx07bXbe0EEIIIYQQQgjRebS1gGUwC4ETwJpU5JXNqCBe/LFBpFV9FcJovJsoMmW3QRRWSowyNj2vSX2Z2VCTFqVMEBUWCWY2TzAL1mlCca7RdMUJWXMWqxpNW4xYRU4S6CkWu7duaSGEEEIIIYQQovNoawHLYhaBPTHvGwIhqrGwk2OalU0prJsio4IFf0TRU2YSbypLTpRVGDuWqVwYfdswKAwmTUHM2+Op/KmsncRMnZzvyNGlZhVZlbdlNvU/gv9G/5tw/x5lMYfolhZCCCGEEEIIITqPNhewOATYzxUOTESr+PscESrxabJxamG28GASUWUzIo/NkVYaiFHZSoI2f6PyHK7qlmlzpraZCoV5UWJMM4oqp8Jf9G/utCVFUdWPtamxgVjlz11qWGThjEM+dtpC3dZCCCGEEEIIIURn0deuG77vBWcYLMcAi1MWVCbyNA8FraT6oEmPIhUzZb1vuzGxiGXimdKzZZdVt2wvqFm/TIwTXeJJoi+iNMLI2t0Ea/ALtSaIavIqlDUm9qU30YYHBBrctGiYDliIP7yd9tj8SoqGyXbFJP88ElgMbNOtLYQQQgghhBBCdA5tG4FlnN5zlMUsSDtMpSsH2jrz84A68/OglKGZbB5TP4//O0lyy1tusoxsJFfqa1MfgRXGKGX3p07YCaKlsvpTbgpgIzP1WYlXuf5UqWi1dIRVOkEwXHkSXZUf+JWziccC++i2FkIIIYQQQgghOov2FbCc5HEisCDWoYxtGKZjbRJp5YzZwyVBEn7lpw8FF0umqmHOYOMYqmSi6e9Mrh1XbipiskPxdkarTfmkZ32rCMSeQvyp8iWocOxEXcqfm2vCD2EKYN5GzEJL2x04/ZCPnWZ0awshhBBCCCGEEJ1D+3pgGVYYy76x8JSN8AlzCm19zJKNRR9bNy/4SoahIpSaP/gra7qesuGyGdP2TGxWZj4nkoXRWkHcVbgtWb+rRll3pfpTUedPZTP+VHlRVI0iqQpiMbC62EUKIYQQQgghhBBivmlbD6wJbKUHsztEWX2GeqcqUmOstd4qKpJNbI4fFskIEwhgJuffLD71MIrEMrFreuDSFMybWlvopQWxwJaXrGiyO2a8NGZncyTtjMbWjzeTzlOmkmTrV9gDnIgTsjbp9hZCCCGEEEIIITqDdq5CuMoadq+LVDJJxFOYGphoHSauQkgwLvkzcYRPoqcyJuKxAOWnSaXwmTr3dGvDinrRuIwvVl3uILG+VjdNRnCzdrrKVSN/KqblT2Un8aeCUiOrfBpnemjA3jgvLCGEEEIIIYQQQnQIbStgWcxBFrt0sika+UpZn0KYpAvaHFnHpxH6ubLiUwOb9npbdZv5bLKCk19jJIJlpw+Xmqdx1U0aWsM39qeyKX8qmuFP1fhMZUSpRmLVNEWsPS2coFtbCCGEEEIIIYToHPraeNsPARYl6YEmCX4yNmV/ZYIIKRNWGIxT8DKJeib8LsztmyR9MJ49bapel+6XnRwAE6QROg+pZBPSM1r/Ob0oU7fUUEizDaZtgZS/htPkTZs97DZ/H3YzcJxubSGEEEII0UkMDfQbYKFvsm9vMNnE4PCIbYP9mO17cOP7sJPNa4GduPfy8bjB4ZEJXUWFnL8eYIE/xlbHVzSTtjS73veC05cDnweeZbAYa5wHlonEHeNDy5wUFFtQRT5Zxn3f47UhE3zn3avi0DTjl9hj/DRewIrmidbRYzPr8TqXSVS1+LP7zgTbZCIfevfZD0A8bfw5Xn4k2JnY18sA9294iNvuXQd1wldzT761c5s2T6ya7vYbuAh4xS1vvuRu3eJCCCGEEKJDhIOTgOfhsmhuatBEHgceyjSVJ4DN5IteFtjA9N10DbArkwdCLASWNGr64/xqD/b/zlRsW4oLZOiZZPu2A3f4/YrGbQZu9/9u8/9u9f8+BGwZHB7ZpqtsymvQAMcDzwbu88evx/99R3Ddbcd5Eued3x3AgwVt0hJ/vc1E/1hGeZlom/z1Fe3/puiaa3VhuV1oywisCdjTwF7hVRj5pUehTDYQlNzf6fw7a9wQBlillhf5tWMwvrJeFIUViVihRGRNEBmVjbayJv05M28cdeX9t+LIq1DFya4z3tlkX22qRuLkMVpF0kisygtWm21klWnw9Ml+9vMd5AcJWEIIIYQQohOEg72BtwAvCJrMDZvnmSbyDt8ufjCnCb0T+Kv/dzr0AvvRWKAC2B3nSzuVkDBbpjOvnWT8A8C9wFr/7x3AnUMD/bcD9wNrgDuBeyRq1bEv8AHgyZMcc+Ovtbv9tZc9X5GYOFdBx/jrbLcZXE+9OAG0t6Tjcw9OON3o9/9O/+9NQwP96/x+3wbcLUFrdrSlgGXdQ3O/RDxyqYHWmLqUu+Re8mIPjaZJT5fKM8yOSn0MvgwENDC+OiL0+PUmopglrJmYaFXZ7Uz2LVR54jRC2/hWLUqwCgWnKINyqunC6eueaGbq7TQz+L7Bdwfh3upcrltcCCGEEEK0M0MD/X3A84GnzaxJHLMAOHCS6Y/uwMM2SbIGK/yQx1oSAWvN0ED/tcAYcC1wK06QoRvFBx999XfA46fRTVvmh0ac0KGHaV8/ZJnACVt34ASsG4cG+q8GrgL+gosCRKLW1LSrB9ZyPySClEmnyxlTL0ZlI4JSrya8ABZ/DvSoUHgKZSuCeSLZKbxvk1qF9eJW3cLjbbJ1Dlc2+0QII83SUhizFbKb4U81lag2U7FqEnYniNATQgghhBCijTkceBkufU6Uyx5+iKqab8WJWutx6ZmXAj8bGuj/Cz5drItEh1U4AWuRLpMZ0xNoGMf4rvJGXMTfbcD/AP8zNNB/PU7M2ikxq/GBbEf2BVZGH8LEuaicn8VXqoO0cJSeOjuKlPF5JNgYExb3i9WabC3BumWFn02mkqCxackpqmzo57F1ZfaSz3FxRJNs6Eyu7mlW82s4rTHpIdLjwsGQX6nQzHCYGamtWHXoR0/dRbe4EEIIIYRoV4YG+hcBLwJO0tGYFxbhsn+OwkXAvRP4oRcc3g08ZWig/5Chgf7FXXAsnuuPg5g7Bpf6eBjwaH8t/Q9wIfBq4GFDA/1LdJjq6WvTs70CMml8QWBTTyoSKl050AZf1aUShhUKCdaQipLKm8fUz0MYkZWNqkpHYSXpj8TzhYmO1iRXeTS7DfYhTje09VFPreJPNdPvp2ZKyW5vYBdcjrUQQgghhBDtyBG46KseHYqWYAEuiuYRftgO/B741dBA/2+AywaHR9Z12k4PDfQfBjwRRV+VxUI/1IDHAdcD/z000P8D4PLB4ZEdOkSOtnsQ7n3BaUvBHhSOswRRSaSjnBrb98VW6S4NMJ7Oj8OmIq+sl6PiyC6bjuSqG2yOadY0qIvkspnvbIMFhtuTiaxqFEWVu94pQqDCr3r8MNW4mUVWZY9koyM82XjAhVrvpltcCCGEEEK0qWjQg/O+2l9Ho2VZgIugeRfwReBzQwP9rxsa6D/En0PTIft5sh9E+fTiIt3eDnwe+NDQQP8JOiyOtovAsq5s6/7Z6KmkCmGkzth0JT4b+GKFEVn4KCYT2qdDVmax1kdIRQqMDdYb/pX1tUrZcKX9sExmbdZaV4mQaDOtX4wJdtB9jleRXV+OT1WL+VNltmS609iZbsFeTF4dRQghhBBCiFZmf1y1twU6FG3BfsCzcZFKrxwa6P8u8LWhgf67aGOvLJ/GejKTm7KLcjgKOBJ48tBA/6eBrw8Oj9zfzQek7SKwJmAxsGfKkir+y4+zBOJVfam+dJRUxiLd5k0ZTRKoQ2FJPtugHKC1qcitpORgsMqGOX7pzbEmJz0wu7nBp6L9qaBQfyomr2ybN8zUIcseBlYRWEIIIYQQol05DThEh6HtWIoTfP4F+KX/95ihgf6Fbbo/K5D31XzSizN+/zDwH0MD/af6yqRdSRvmUptdLHbvcIyTQoxLI4yVosTwPPKGiu3ZUyFJJjZRD8fFS4nTCG1gDJ+RzEzieRWmMzrZxQQm8n68TaZNxmUUq7rcQfdvbhphnnZGY9lnqrS+uRuqT5byN9W0s1l7Mn/yP9NnMSv1vBNCCCGEEG3KQ8Cvgd8CfwbWAPLCaR8WAocCbwG+DPzD0ED/YW2YVvggTogbBa4AbsZV0BPNZRfgBf5aetHQQH9XViVtu5zcPT+3+iSwo8aYFVHyXSJxWHp8LqAJTNGjrEKDiVPyTKQrGWeX3pNaTjK/wWDi1D7j/J2i5Qcpf8YvxxDMVzc+SQ90402sbRljknWa9J71GL+dNtgvP01PvJ/uv+s2bOK2e9c3PLlzO+F5iYd2mtPOZu02Z4zJmcbUV4R0R/W1Fvu529986U4974QQQgghRDvhI3Z2w0XARMNeuGrsR+Aqsx8BHIQzFm/1/l3eW+17gAcy0+2OK8jUqCPRrr5SO4DfAF8Fvj04PLKhja7FXfz1t9IPe/rPhwL7+GtwX+Bgf82aNj5P7cA9wCeB8zqxaMBktN1FtddnV59hDf+HsT2hKNTjn4XGhiJVIhzViU2BRZUxOAEr9pUy9TFA1uXk9YTL9BUEicWnHAGLRDyL/kssptULWPH2xesMvrPQEy0rnpZEHLOWdRs3c8e967EULVbNdNq5iVW2wTIax3KZvK34sIF/ue3Nl2zVM04IIYQQQnQC3tx9iR+We8HgQOBE4HjgBGAPXMTGfKYa7QA2ANcBf/HDOuAGIHrBvAnYlplvIWkvW+NFkr1w6VRH4PyYDvD7vS/OJ2yh/7fVPcPWAz8CzgWuHBwemWjT69D4Y77Yn48luPTJ5biUt8NxqZTH+O+bfS0+BNwO3A3c5/+eqpPaixPhlvhra08/ri+4vlqFB3Em7//aTSJW+0VgfXb1szFcCKHfeSg42VhsikzbXXU8Fy2URGGlo5l6gJ7Ahz0VweUjr4jX4aKioigsUpFTbh09NrOeIAqMVBRYElmVbJOJfOiTyKzo+6zYFcwTClgzo/XEKttwajPpFme25PPAP9z25ks2qakjhBBCCCE6FS8mRCLObkAV+BvgccAqml+dexPwNeCzwI3AVpxQNQHYmRqa+/2LumQL/N99XlxYjDO8PxpneP0wL57s4YdW9MWdAMaB84BvAPe3q8l7g3MViT6L/Tl5DvB0f256m7AZtwFvBv7HH+udJKLpVPT566vXX2uHARWcD9hR/vPefphvX7Mt/h577+DwyL3d8KxrKwFr+edW9/TBK43lM9ZYE6baZdMIrReliCKmbBKRFUdnBel3LgqLBlFYQXQWhh5sSmiKo7saRmElKYvxUk0meip6Ipsggsyv10V+MWUaocGw4aEt3HLX2kmO4mQpf2aKaWdzuTQWq+pN6bMpiWauW/Jz4Nm3vfmSB9SsEUIIIYQQ3YIXEQwuSukZwKtw0VnN6P9Z4CvAPzWrUx34SkUdiuVebDgGOA4XtVXBpby1UhTNNlxK4fmDwyNXdfD12IeLEHw7cBblilgTuOi2tw4Oj+wo+NrCX1snAqf4f0/y19V8RTtuAYaADwwOjzzU6c+2thKw9vjc6oUG3m4s745yBbM+WLGA5IUfkytgRVFMSYSW8YKXiaKwsmJUEFHVY6LPGQGLzHw2EK58CmC0HhuIT9EeJJ5ck6QR4iLFjKmP5OrBsGnLNm664z4mj6pqXspfdkqbWZ8t96IcAx5725svWatmjBBCCCGE6EaGBvp7cSLOvwJPo/wImHHghYPDI5e20P7vjROwjseltZ2Bi0xrhWpuE8BlwHuA/y1CdGnha/EI4OM4EassbgZeNDg8cnHJ+2JwqZHH4kSspwCPJZ3+2izuA/4J+Org8EhH+z+3mYB12i7AR4w1b0jS86IdSVL+ekhHWsXm6xjvlGSSdL86wYiMwTtBCmLiidWT8avqsdGMiSk8QbRUXRphNgrLZozlc/yxppNGuHnLNm66I3zRMT9ilc1Zl232BWjtPcCxt73l0q4IpxRCCCGEEGKSDvfhwJeAM0te1deBl7WiEONFh91x/kanA88EVuPSDOdbzLoD+BDwxcHhkQc7+Do8HRehd3hJq7gUePTg8MjWJu5TL86n7WRctGMN2LXJh/Ya4BWDwyOXdPJzrKedNtZgDbBLonrY+JsQG/5lnVBlAWv9d5EylElZi7+z9UuzwYKtMdiMUhNFVLkvTP6yws/GZnbBb2O8LptahrWWaKXxf6PPuSqQDfYxO0yGTQ3ufyZncFNMZIZG081mS2aEtdjsAL1YuwQhhBBCCCHEOPB+oMzshAmc/1VLGpMPDo/YweGR9YPDI38CvgC8EBeV9mngWmD7PG7eAcAHgHcNDfTv1cHX4dXAD0u+Bnc0+braOTg8ssbv18uAVwK/pb5AQZkcBQwMDfSv7OSHWE+bbe8CoJISnWxSfy4V9RPoQ+kYIEOiPiWiVnYJ8ZfpEeFK68flEgpkNpaF0t+mxSxjbSbtLrN1pl5jy498mr1YNeGHSIRynyORKhGqaCBYzYNY5VI50+tcAFQqHzlVJVyFEEIIIURX403CfwP8omTxYG2bHI8dg8MjG3yq2ZuAvwXeC1zOzKpcFcky4A3Ae4YG+g/q0OvwIeASnHdTx91jg8MjDwwOj3wL+DtgGGhmNlA/8PzAt6vjaDMBy2CwJomGSqKrQizpqCRro5J+kzyKgsipMMIqEWVsZnwQMZUSwbKyUDRNxiTd5v5Zv1nJbubPZ8mslbqtCLc1/U0iVCUDsXA1kRKywDaQowoTq3yUWVacIjPEYlVmSBvvx6mVZjtCCCGEEEII4EHgQsoTaHYAtzN/AtBshYcd3kT9/bgUsA8CN83T5izx2zA0NNBf6dDr8FZcpcCOZXB45BbgXbhqiDc2abW74KK/VnXqcW23CKw+XInUBrJV5lP0H292nhaUogkyEVmE80C9MOTHWpPOYDQpxSyZx5COzkqJaEnkVbTelNCUmc+Gy7XhttkkPTL+r0lFSUXfNEr5m2iRKCqy68wRsGKxKjvUr2UBcLjCr4QQQgghhIijsK4B7ixxNaaNj8/E4PDI1cD7gBfjvJo2zsOmLASehROxDu3AS/FuP3T6/bYd5wn398Dvm7Ta44Dnd+oxbSsBy7oCfHvEj8Ugey+MLsrWtwu/zyYVRmOSKKmMr5bNmzKaJONjFQlOpsEz22aiofx/bKroq22486lVmcZG6dP3p5rnlL+8dWYFq8gYf2qxqtGPpzywhBBCCCGESHgA54clGgsPm31q4RuA1+OMwbc2eTN6cdX6zvUG/J3ERmBDebJBS11L23Fpu4PAH5qwyoXAkzrwmgHaTcCyUeRTxhnd5FfJs7HIFbhcmRzfq5TgZFIm6knqHJn0Qu8XZdMeVdG8bjk2lc7o6x8GJvLJBttMTJm1GcUqNX0mcsumPbImcoWqJohVDVIAG/hTJdFUgUE9OULVHLbPUH6ZYCGEEEIIIdqJh3BpfmJq8WED8FWcMfenKU90may/fhbw/qGB/gM76NDmpzkVw920nohlcb5f7wH+2oRVngyc0Yn3ZLsJWLuF22yZROQhm2Zo6u+XBr5SNoiKioSWPInMBiZUzqvK1IlJ2S2zeSskL1Uws66wyOEUT4Jwj4v0p7JT+VP59c/AnyotWFF4vHEfrpqHsgiFEEIIIYRwbKIL0reKFB8Gh0euxfkZvRG4fh767M8A3trpFeYKYILmmqbP6DoCfgR8nPKj+ZYAZwwN9O/WaSe4bQSsFZ89zeD8r/ri/ME4wsqkIpjq5R9SkVJOaErGp6a1Oe7qJiN+hT5WhroFhVFYddT5bdVvB5ntT+tztrEYVpTQPIeUvxn4UzUDA3TcTSuEEEIIIcQcO/k7dBhmLEBsAL4MvAL4qT+OzWIxzpz7jUMD/bt2wOEsM0LKtPA1tAPnifX1Jqzucbhgjo6i3UzcFyR+ViZ97dsozS+UdXx6YU6EFcakpCCbEpZMWiTKiE42SAO01uRqXslnmwqyitMbbf3UU6UR1hnXm6y/12weHXPwp2otsUoIIYQQQgjR5p38VsabvP8OeC3wOWBzE1e/BBcB9tKhgf4FbX4oN+FSWbvxGloLfJ7yI/lWAR1XxbKtBKxUob/AX8pkxKDcCCz8xKn0P/+dzTy/I4+s0Cie/IipVPVAS8M0Qmts2us9FdRl6nY0NUk0r98epx1l1uGVrEnFrBmKVVl/KtOeYtUEQgghhBBCiKZ127pAhLgZeDvwQWBdE1e9G84M/LFtfvweAtZ38T1yMfDDkvuqPcCpQwP9CzvpwPW07ZbbuhisOuEqrNhn6nysMgvz6lCeg1W9NGbrNyQnoipRqvK9uqLoKZMR1bKm8HbSSojZCaJl5URL0cCfCqblT9Wm13cnmR0KIYQQQggxVyaAbeX10tjSDQdxcHjkfuAjwHuB+5u46lXAO4YG+o/Rpdy2184O4GuUWw3UACcCizrp2LWdgJUEOAWVASMBKrK4Ip0OmFK7iGyzMuIS9T5Uaf8pm6rkF6zORXCZoGphJgorSFTMKbeQTTFMi13GNhLTGm2nW7dS/mL2QCHSQgghhBBCRJ3nrcCakha/A7i1y47lp4D3A2ubuOpHA28aGujfQ1d023I18DvK9QN7OKAIrPnBAnYF2N74kw1M2eNpItEqPWf8l00irWL/KBNNZaiLtzLZSyqI0Qrst2ymTKA14WdTt6y6ZZtMlFYoiAXLTdIIbSaNMJHJYvGqi/2pwug1axFCCCGEEEIkKAKrIAaHRzYDn6S5IpYBXgA8c2igv1eXc1uyE/ge5XqBrQT27KSD1jYClo9eOsBCb+iFlcRh+elskJIXThXoQyb1fDVpk3YbRjTlpQRmn8/RSqeaNjNPvFdpc/bUeoMorGwkV/bxlY3s6maxKjUgAUsIIYQQQogm0nXZD4PDI1uA/6S5ItYy4G24NDHRfteMxXlh3V7iavqA/YYG+jvmnmwbAWuCPC8qk6nyF/pYkZo69Em3NkgrbKgzJZFT1pjAn8rEolN6fEZIIe2YVTf4lMS6XWIaMYSGBnZcts4XrN3JFab8uAk/hOPrxtl6j3whhBBCCCGEKFiQ2AL8B/BhYGuTVns4LpVwN52BtmQ98MsSl99Hh3lCt1EKoSGSIlJeVFnvqJgc76joP8YtLys65UZkEc4D5LhYgRfFwnTAVMnEYJ6s6XpKREvUsFR1w9RykvlsuFw/T48xLOjracuwozyxikkEQvJ86p33fHrQg1EIIYQQQghRMt4T69M4X6ztTeokPw14vo5+W7INuIry4k96UArhvLIJsCZReOK7NuUvZdOCR16aYVqiqvfMSjy2bLiWHD+scEMCU6xoRZAWs1KzJwmEocAWRwyFYpfNF7PCSovRPMa0tmTTKOUP2yhajVyxykqsEkIIIYQQQrQQg8MjDwDnAhc1aZXLgZcPDfQ/TEe/7a6VnTgBq8yIvYlOOmZtJWBZzE0Wu92SaEIWk5i5A07BsdFffhr3ycYiV+ByZXJ8r1ICkIlN1BNRJaiAGKcR+iqFNokGSxuwJ+mO1qS3KzGRTzY4To00ybrJTJZM37iS4vyfsyn8qTIDeWKVYUaRVbnLFUIIIYQQQojmCBN/xflhjTVplauB5w4N9C/U0W87NgJ36jBMj7YRsPLEiqxYYzPm5/VphLbBEoPwn8xsid9VMJe1eQmKQRpiZMll6iKlsltm81aYu/TMukz9MbBNlmrqhKnM54kGvlWpqKu8Ez2JUDWVMGWTRbghx19fCCGEEEIIIUrmMmAYWNeEdfUCrwCO1WFvOzYCt+kwTI+edtzoekkoa8oeRDuRrfvn/w0ipZzQlIxPTWtz3NVNRlIJfawMdQsKo7DqdyYTrVU/e2pkfRqhzfVzL/p4T8ufyk4SbdUg5W9a6yWdDhoO2RmMTf41tsF0QgghhBBCCFEivsrchcDXaU4aVwV43tBA/6IuP/TtFr6wlXJFzo7qDreVgOV0oqTSoDGhn1Wm/p5Nf07S9WxuhBXGpKQgmxKgTFokyohTNkgDtNbkal7JZ5sxn/fblRt5FaQRkuv1Xsr9mhWhmCTlzzZI+ZupP9V0xCrTYIa0WGXT9vwNQ72EEEIIIYQQojwGh0c2Av8OXNqk7vKLgCO6+JBP0JyItyLZAtxf0rKtX37H0G4RWKb+fER/Jf5Sxma/q5/DTZKETqVEJ1u/GpuevGHEVKp6YKiyZac3NhUNls6TM3W7nZJgTFjRMNJo8lMVp7yi7ST+VDZ/P6cUq5iZP9VkYpXJzJQSq6zN1pLMW/DG7OETQgghhBBCiGYwODxyHfBJ4IEmrG5/4JVDA/19XXq4dwBraK8orK3A+hKPx62ddILbRsB64OxLLXCvgZ02SBGMhRJbF4NVJ1yFFfuMncwxKlqyJU8WqpfGMmtKmcWHXyXLTc+WiGiR3Xs8ebQVcYqjzamimMSg2UA6aihOeS+qiUzK30TWoypHhTKTiFXTMU/P86eK0/5S4yzGb4jBpj7Hg6F+zWHeoDuQt+tnUwghhBBCCDGP/NgPZdMHPB04oYuPtYIXEnYAt/t01o6g3SKw7gJ2uj8TV3Ub5NklrlCJr5UhnQ6YUruiK9xkxCXyTOLT/lNh/E+wOhfBZQIPrkwUVpComCP0ZFMM7bTvzkTQS6c8ZlP+bAum/BmmyFdspHpN7oxl/U0rhBBCCCGEEPPC4PDIfcCXaI5Z92E4EUuIe+iwCoftJmCFllDhKC/OBKbsqe/y5vB/2STSKo5sivPWDHXxVulRqfWH9ls2UybQGpMyc88uq27ZJhOlZWw6TdFm0widmNPTA319Pcm+NDnlLzuTyQ2KmiTlb8Zi1ZSedPJwF0IIIYQQQsw3Pwe+Tfkv2PuAJw4N9D9ch7y9dI4S+DPywJpXJoC10TmOJY1AojCZ8+8yzbKJgCYlHJnUdWPSJu0pH6i8lMCc687aRIAKpjVTXquWdF3BxuvNRnKlNyeIRpuBWBXPw+Ry0fT8qfLEKlufX5gVqkzdl8xArMrbnc16HgohhBBCCCHmk8Hhke24KKxmWJwcD5yio94WLAKWl7BcC/wGCVjzh7XssJbbbV0cViJ4pKv8hT5W6alt4J9kbZBWaBuvPJZkjAmioUwsOqXHZ9L2mGLwKYl1u8Q05NjMdocC00z8qcJ5Ut5UdUPWn4ocf6qcJMZ0KFbeWpmlUNWIHcAdKA9aCCGEEEIIMf9cB3yzCf2TJcBjhwb6l+uQtzxLgH1LWO5a4OLB4ZGOstRpKwFrwmXRTaTNu0l7UTX0jspxmgoDfbLxQvHCMhFZ0X/rDMQza7MmnQ5oTLIqG8xjSEdypcSoJM0u8umy6XKJ6fly9rj4lL88fyo7G3+qZtBxZUOFEEIIIYQQ7cng8MhW4Du4l+xlUwMO0VFveXYB9iphub8F/tppB6vdUgi3Azdmo5MMtj4CKfSXsvViDtlqfZklhoRRUhnVK8cPK9yQwBTLr8gJUQ2EHJskEGY9taZKI4x2IpxqKrGKWYlVNEj5m5U/VdlYYJOeiUIIIYQQQogW4TrgR01Yz4HAKUMD/b065C3NUuCgEpb7K1wRvI6i/TywbOSBlVQUDH2wLCYdpYSJhaS0tTtYEzidR7FVJsf3KiU4JWbsiXQTek6ZOHrLbUvgURVveCS72VQ6Y7yVWcEqFKtM8pnsZIGCNak/FUn1v9n5U03mjNVSbAdu0jNRCCGEEEII0QoMDo9sAC6CpF9bYl+/H5eiJlqXA4B9Cl7m1cCvBodHOs5Kp6+dNtYY54FFvXc74K2XUjZSFhMZtqcqC0bfh59yPLWsSSK5UiKT87uKZRubfA6X7LYn/NvEG2lz1pisKrPCzI7m7UW0qWHaoTFJlcX0gczsZ2pc9qi2dRE/C2y97Z8vkwdWm1GrVuILb3Rs3HbDfnb6vuocihKPvwFss459cM7NJD+UqQotui50X4q5nUOdR9GBXAxcAjyl5PU8wgsk17bSzg8N9O9KOcblbcXQQP8iYHXBne6dwP/iRKyOo60ErI3nXLpz6adPvTtuGpq0fXu6LenVLC912UnkKoiCorzgFQtNaVHMTWLToVyGjJRm60Sv2CcqkJhMVm0LN8TUJSqmxLBwWmsyCZFh/qE1GTP1LKbTnwk7gFv0+zjtxmIPsML/mKwZHRvf3KT1Gv8sWgQsAHpxIc8rgZ21auVu4F5cFdIdwFZg++jY+EQbNsb7gIV+6AP2APb3N+ODtWrlVr+PO3ERhNvbcV879N5Y6K/NPj/0+H8PAHbzk04E16vx5zF1PtUBK/ReWg48FufxcQFwacnXwGJcmP8RwIlA1d+/e+X8yD4E3IwL3f9jrVq5Grgb2Dw6Nr5dZ7Hwa2GBH6J78wD/e2aArbVq5Rb/22GDe3JHNOi+nNfztyB4rkbPWIMzNN4zaMSuq1UrdwSds52ZZ6t+J0VbMTg8cvfQQP9vgCf4NkZZ7A6cOjTQf12LRePs6n9Tu51dgMcU3DG/Cfimr3rZcfS13RYb7rSWHcawIBFhfKyVibPzMFmVyZpUFJb7r8Eai0nClxJbeC96mWj5UQQViWl8rFMFYlSUBmj8uqwNzduDzYi3zm9JIMglUWP1sVaQEdRSf2Ra0CbriNXZ5DyRtyAT9+k0IHfB5V2fDjwfOAz4f8BoyY3W3XDhsofh3g6dCKzyHY+oExI2VO/3HcI/AH+oVSvXA7cB61q18+H3cxmwn9+vk3BljY/2Hd9FvsFO0LHajiuvfDPOI+GqWrVyre8Ir1UjvSnnbbEXR1YCe+ME1WP9OTzYf45Eq17S6fjR9Wr9Obs7OJ/X1qqVm3ApA2uBDeo4z+i89HpR4lAvXD0TOME3/vauVSsvGx0b31DwOpf6c34s8DTgVH/vRkL0ZFYME/5a2AZsBi4H/rdWrfzWNy7v1/mf9f25EvcC4CD/23EoTlg82N+b4X0ZPVvx5+F24D5/Dm4H/lKrVm4DNgD3jY6NP6SjXNq5W+CfrSv8OTzY/x4e5J+r0fPWZtoB0f0Uncf7gTX+GTsO3FCrVq7z53UdsH50bHynjrhoA/4XeCVweMkCyROAr/nfpBbvvnUdh/s2RlFsBT4HXNmpB6ztBCwDD1m4x8IBqSCrtKSTRFwZ6LHe76puqsy8ccSSSUdeWeOjn5KZrElN3iBiKgoAs7FPlvFhXdnIqWj7DHlRXxnVKxNvlghdeSZWXSFUNRp/a9DYEfWNyEO9oPII4InAMYGYsrpWrfy8aLHEdzwe7judZ+BEsyO8kDMVewIPA57sT/ca4JfAL2rVyq+Av46Oje9ooeN7JHAycKbf1+nuJ7g3z4/IXMu/AX5Xq1YuA/6sTlah58v4zvDDcCLq0f46rfr7ZLZGf3v5ZYQ/N+uBa4A/A1fXqpW/4EK875OY0fD8ROfmBODR/p46MHNOHoOrtDRW0PVwkL9/H++fj5VZtJl6/LAA96b5yX64C/gF8J1atfJ/o2Pj9+gsT3lOdvHP0GNwLwGOB47zz8qZ3p8HZpoOFic0X+fvyT/5e/Qa3EsDO8/7vjdONP1zO0bv1aqVZf7crQKO8sPR/p5aMssGa9QeCNkcnLfo2XoVLqJcYpZoVcb8s6dMAcv43899fNtZtAhDA/09wDNwL7uL4tfAlwaHRzr2udd+EVjYBzHcijUHhL5NNoldipskJhOVlBWuYkHJe0XV6USp9k0Q6dXQSyvtZFUvq9SnALqNTIVfxfNEwpmbIvHUCkUtm4ScdYRcZWf4nZ38aX0PrfemYb4653hxahXwKJxwdZzvXOc9NFfg0mU2FbTulUFH8CTf8JyLoaTBRcP8Hc6c8irgolq18lXgtmZ3OGrVihkdG7e1amVX35F+KnAa7o3K4gJWcTDwIuB5wA3Ab2vVyoXAL5SONKfrcld/ns701+VR/lgvLmG10TqX44Tb03ERBXf46/fKWrXyv7gona3dKGZlvKVWegHpNP9vJC42inhaABxeq1b+NNtj59MEDwfOAp6EE5H3KGFX9wVeiBOzfl6rVr4O/GR0bFxVc+t/s47xvxvHedHjSIpNOYnEr/388Fjci6+/4kTmK33E3CW4tNCm+jDVqpWDgX/GCVgvAx5ok/PX55+pZwKnBIJVmelCu/h1nuTbBvfiXg78sVat/MJ36h7UiwLRYmwFfuLbyItLXM8e/j6UgNVaRG2OBQUt71bgo/7517G0oYDFZgP3hv7qqb5B7FsVpvSlzdxNRnLKOsJHUVNZMareJD5YcxBVBenIsEiIsiSeXD2BmTsQ1lOMx6QksKzGNUMxpxWxs/huqn006QnuoEsjsHyqzULfoDvciyqPxr0F3R8nWpk5nKLpNGB7vcj0bP9wPs53SotmGfBI39l8GnBurVr5UbM6g/5Yr6xVKzUvMp2Ee8tVRpXXBb4BcjTO9HOkVq18ErhGb5inLVDsghOpnuFFilW4tJWF87BJPbhIn4P8trwClyL7lVq18ktceuzODj8nJnhW7es7u4/BRdjs758Z041cnK1wtcCv60W4NOqH+e0pmxXAc3AvFb5Tq1Y+Ctzarfdy4Ie0EngcSYroQSV37PLaxqv88BTcy7AbgBHgJz7dcHOZ6dy1aqXP/2b+i382rPXH4IEWPneL/G/fk3Avlo7y9/R8VT/bC5c29VicoHUt8F+1auUi4M5WidgW3c3g8IgdGuj/GU4gL1vAOoYS7UHErHgG9dGks+Uh4Hw6tPJg9ke63WSP9WBuiB2q6rzQE4+rWHEyJvOdya0AGKYR2lDwCvP6Mn5XJhtwFXpsBfZbTsQKvo9SCMOqhNllGe+hZaAns03Rd7FQlhHQ2l2omuo7M3VXxeK8LbqigRI0Hlf6oeo7RafiPKZ2mUEnEFxkyGy3ZSEulaefJK9/URMOw2Jcqt5RwAW1auUTvjNoSzrmkVHw44GzfUdr1yae9gOB1/rzPFSrVr5btP9Ph90f+/tz9CJ/zvZgfkSrRiwg8YF5Ak7I+lytWhn1na2JDjofkYfRXrgUzdU4Efrh/lm1mJkLwBPAg7O4h/cBngv8PU7gn49rYm/gHFy02b/VqpWfjo6Nb+my+3M3XHTVU3CRpof762C+GzYL/T15oP99eSvwc+D7tWrlSn9vPlTgsej1z6qn47woj/T3whL/u3p3C56/PXEvVZ6Le1m1L80VHKei12/Tvv5Z83rgy7Vq5Qc464Ft+pUU88wduIjPR5e4jiU4AUu0CEMD/VXgBRTzwmwb8AXg84PDIx3/TGs7AWvjOZdvXvaZR6xJBKFEr4h9pkxG6MhEUfWY0MjdTxVEOPWkNJB60SpZdl5KYFZDMcH4MKfRxlFi9bpLnqNXOC6/GmEP8x+FNdM0v+lM00isMjmjMxFYt9PBKYS+Exh1eFf5zlfVd9L3nePi72eGBvi+M7jKN2D/Dvf2uHceDs0K4B9xQtb7atXKJUWLWN6T5KnAi33He9E8XQbGn/PzgZNq1cq5wM1KkUh1jA/ApWo933dAd23xzTZ+Gx+Ji0b6JfCFWrXy49Gx8Y1teh6W+U75ATjB6kgSD6P9ChQpts9gm3b1YsmrcILmfIuZvbjozU8AH6pVK1/sBp87f22sBp7lfzsOoHUdERb539YoUu9KXDr3ZbgIrZuZhWdWUOzj4biXTs/AvZhYlHkuLI3S1Vvk3O3h753nAn9DOem2RbPYP3c+jEvj/UqtWvnm6Nj4XfrFFPPIFuBX/r4v8/l3wNBA/96DwyPyXZxnhgb6l/n2xyMKWNwE8N/AxwaHR9Z1w/Hra9PtvgPDJnxYsvXhS/WuVCZT5S/0sUqLJ4n/lU1M280kOXthCqCPzHKTB9Fefv5oMZPm/+Us39TlNdb9OWOhaC7YWXw/3ZQ/EzbRGohVueNNwwktcPvtb7u8baMWMn4w+Ou9gnvTeRTuDfWhOAFrf4rLn4YZVvbzb2CfDbwUF0Uw388Wg0snXAn8E/Dbgs7JYqCGS/V6Iq1T/ncZ8DqcoPke4I/d3DDw985euPSsZ/sOcjuWal6ES8c5CXhyrVr5HPD7VovG8sfbBO2KfXBi9uHBcKAXJ/Yv6fmwA7h9Os+tWrVygr9fnoUzg24lDsSlje1dq1aGR8fG13foPboAlyb4fJzAfEAbtp9P9cODOM+sm4Hba9XK7Tgfko24og135TTblvh93svfH0fgPBOPaPW2ea1a2c0/l/7Wd7j3asNLsJfEW+/xtWrl88BFisYS88Hg8MjWoYH+i2fYU5wN+/nfYAlY88jQQH8fTvh/SUHd8+8C7xwcHrmlW45huwpYdxm421p7GMZFYqXjk0xaIDGNZKtQ8rJJtT8fLWUzl0fsi5VNI8RmUgipe/5YmxHYwiqEYYRWtgxhkCoYLzsynDc25fc1XdFoOnfCbL6fY8pfcmgaTWtmtKV34zwj2q1R34uLvog6ehVcCuBRftxyXITR8pLv363T3N5FuKiWN/nOyLIWO6SrgY/VqpV/HB0b/90cO1sPAwZxURv7tuDl04tL21xZq1beMjo2fnG3NQp8FOAyXCTHa3DRabt1wK7thTNwPgM4r1atfBl4qAWqo0XpTo8kMcCv+GfU7n5YSjl+cFkmvGAw2fauxEXP/D0u2qW3hc/3P+Eibt7RSemE3tvpaOCNXgQ5oAN2aylOfIrKoG/31+J2/1u6qUH7eykuImhZC1+L0XkzuDSXM/25O43WE39ne+76cVEQX/HWA3coilnMA7cCt/g2f1nsjxOx/qjDPT/4qoNPA97N3KNWLfAd4G2DwyM3dtNxbFMBy9yNe6N1WHz6TCJn9JB4R8W6R1jsL6Nv92TUkaCwH3liuA0mNPHC/Qrq/LCCZZvIY8vE81tjvACV81tpLYlZfSKwWdMojXD2V/+MpCEKEquoS/nLLGQmW1Q37e3M0A+lBRqIK/xD7RW4EPdF/h5d0OR79X4/TNWYPRx4Oc67ZWWTOqmzYTXOI+qNwKUzjCwzOH+a5wMDuIi3Vi742YN7I/7eWrXy/0bHxq/plh+zWrWyiz/Xb6I1xdQ5//DhUu8+iosc+EitWrl+vjpa/ni/GHgDLtoqek7N1/2xo9EPhRdNHg68A5eetUsbnO8lOA/BNbVq5ZPtXqHQP0tX4qJ23uh/P2Z7rWzHRTY9SPpli/GC0FJ//89XWugCik+ns8xTdVLva3kU8A/+/llJZxS+znbs/xGX2vz+WrVysUzeRZNZiys0UKaAtY8fxDwwNNC/AFdU4j2+PzEXNgP/BXyw28QraN8IrDXAmrpoJYIUwTjdzmTS8UwclpW2dgdrIpEoEZ5sxli9TjiKDdtDAckkmXBxGqFNpReacElxOmKinCWrTbY3acYkhu1pg/ly0vxm7U+VOm4NFmZmssa8yNqGoVrjQNsYWteqld2Bt/mG/Xx7sUxMdtq9Z8mTcdFIp9K6wlXIacCHcFE5103znCzAGWr+P7+/C9voGVkD/rVWrfzD6Nh4x4eK+1Lzr/Lnd++CxJD1wJ2+s7zOd5R3x0VILvYd1L3moSO3BCdyH4wTKn/T7JRCLwi9CngvLhq0FbiDHM9D/2zt953T49qs470c+Gdgfa1a+VK7dqi9eHWKf5Y+l9l5Bk4ANwJXAWPANbgXVeuDaXq8uHIQzvD8aFxK3tG0v6C9FZem2OxztwdOdHyTP5ZFtC82+Hb8Vlyk2kac6LibvzaW++d4s/soff63/mCcD903lVIomsg6nJH7U0pez9461M1naKB/Ca5AyTtxL/3mwr3Ap4HzBodH7uvG49mWAtbGcy7bsOwzj7jdZNL86qSNTIXCOI3QhsqLaSCPmHqRxAbVAlPf+EgqEkHK5nhy2SANMU79C6sQTiHVNPpiOp5YMxWuQmFqqtb+tP2pyJrcG2aWkGimOQ5I/CfahUfiohlaWiSpVSsH+U7IS2i/tziPAt5Sq1beOjo2ft8U+7kf8Gqcp9cq2pNnA7fUqpV3d2pFM58yeCYu3eqJzK3y1Q6cKfPFwJ9w4tWdfvw6nMlqlBK3GJcmt5/v1EWG5PvSHEHX4ETK/XBC5XebLGIdgfOQWt5Cl8MGMtVT/fNqwD+v2jXdaU+/D9cBv2nDe3QhTkB8G3AisxMQrwK+iTM5vmZ0bHzdDNZ9OK7yVs0/E/dq0+vgBlyJ9Gaeu0NwVRf/1j/vZovFCY6/A64GbvPP1q3+vo0ErN19G2iFb18c5p+rx+MEyWb1WY4GPgbs6aMfu6YiqJg/BodHNg8N9N/WhFUdPDTQv3RweORBHfVyGRroj37vVvk+xUt8u20uXAV8BLiwG6oNNqKvjbf9L/6Hb7dQxQlip4J2khdKYlP2INqpgQziooe84GVMXYXBOM0wHB97x5t60SZcnV92Kkkxq7YFK7JB+JIJqikaU1+x0Po9myBXgmvYE5qflD87ybRzfkl+y+1vu7ydGh370zrV0db7Dnu2I3A6LuLiVOav6t5c6MWlAl5Tq1bOGx0b395AEDkV94ak1qb7GT7fX+l/7L7WaT9e3n/tWbhQ7CPnsKj7gP/xHeQ/AXdPUv3tngbbsafvGJ+GK4l8ghd3yo72OQZXTWtRrVq5cHRsfGuTDv9htJZ4lfrR8N5cJ+A8Jp7U5vdxdJ7fXqtWzh4dG7+jje7RJbhIvXcwuxce6/yz69PAtTONQPPRM9fUqpVrgf/1y3olTlDbo43OvwV+jksZacZ568P57b3fP9NmWyDmQeBSf9x/hxOtNjRIg7y3wXas9M/XY4Bn4tLD92xC/2Vv//zYo1atnDs6Nn6/uuOiCdzm2+Bl/r7ui4vkloBVEl64WojzeHwmznvzOOZWbGsDzqz9POBPg8MjXZ3i3MYClrkB7AMYs5vNpggGaYSJn1VGZYo9smIbdpfWZwIzd5IIK+NFL5OKGorEIxMISGkxyvrpIhN2a01KNApW5acPqyYGaYQNIq8g1L3s9GSh6YpVedPOKOVvutMW3sdbj0snaSd+CVyOK0k932zGRZtEjcjdcNFhb8G9BW1nluIMnP8A/CzTWF6Be9P8jzgj6k7w+FgJvK5WrVzZSX5YvurlS4G3+32c7XX+a+B84Bc4f5kZRzF50egO4I5atTIGfNuLJy/393PZJtUVvw/LatXK55qUZnZ3CzZ+twETXmx/Ek5sP76D2muPB15Zq1Y+2A6phD717DW46MjZRO/81Z/Db8zV/8sLJg/UqpXf4MyLf+x/z05uk+f8Q8AvmiFQe9HxLOB9zD76eLv/jf0M8APg/tGx8Z2zOG87/LPm7lq1cg3wQ1xE3StxfqGHU27E63LgzcCutWrlPaNj4w+oay5K5j4/LC9xHbvT/i91pqKHJlae9sbsS0gK2BwK/A0uJflQ5pZds8n/bn0W+Pbg8MhDuk3aOwLrWmCdgYMiASkVZBWLJdFfgb9UXgRUIK/EY23iPxUGSLmqgDalyViTmryuFqFNBYAlfljGe3TZsCohzo8rlt2CNEMgJbBFa4l3KdgsY6fQkUxGQsoTq6YdWTUdfyrTrLbiGtybvnbiRlyayOtwbzyP9A/D+eAA4NhatfIHXKTFgBcLZushsgX3Jn2tb9hGQlJUpazZaZOrgP9Xq1b+Mjo2fqdvtD8MeL0XHTrN/PsM4MW1auW9nZAKUatW9sZFdJzN7M24bwa+4DtY9xRljOw7aWtr1covgP/zosPLfCNmRYmHZQ9cqs+9tWrlv5uQTvhn4Bu4dOLdW+TS2OSfmS/Epasd2mH38SL/HP4RLtW1le/RJV4gGpjl8/0Gfw6/X6RY5+/zjbVq5ULgeuBfcabkrS5i/QgXHVr2edsVFzH3z8w+zeV+/2w4H7ihwGfrBLCpVq38CfeS6Ws4L8CzcJ5nZd53rwPu8pHbWxGiPO7GRXqXaV1xYDPFnXliIS5l/IGhgf67cS8so+f8etwLuEbP/R3+ObY9mGaRb2dFgnkPLkpzgW/b7euP69E4YX1/5hZtBe6l3B+BEeBLwB2DwyOqjtoBAtbdvpFzXFLdLxR00kbt5GToZYWrWFDyy6vTiTJzWi8smYZeWqm4rBxRp96cHROWSyTtfu4VMjdF4qnlxCtvOI/F2LTvu5lW0JOdQRNuzv5UZXMnTsRqG3wj7+patfImXLWsE3Ape4/yn5t5MFf6zvDjcNEdj5zh+tfj0tauBm7y92okYEWVwpb5ju8KnGHq8X5/96c5HkJPBl5Rq1Y+jnsL/284w/bZ/uBYnIH0uG98rMv5MT3AD8vn4eZ4MS7q4LdtLl6t9OLVq+YgXl3qz/doWZ0Rfz9vB35aq1Yux6U6/gNQLfHcH4orVLDFd3jLfF5tqVUrQ/43+MU4H7L5ToF+BC6d8qnM3ecoL5DZzPcPm38e/12tWrm6VaOwfHXKc3CRrrMRr+7ApQV/v6x99PfnVbVq5Z/8c/vZLSxi3Y2LQru35PO2CBcx99Y53D9/9c/W75YVreTPnQUur1Urf8Glf7/Rt5XK6tMs8sdla61a+fdmF80QXUXUVi5b3OnpgmN5sh8eJEm/Nv4YN4piMr7tFr5wj54BUbV1i7MkiQSsZQWIVVnh6lLgv4GLgOsGh0f0zOkgAcuCuRjs0w1mkTVZS/Ck/F1smB7PmDZzNxnJKc+oPfGb8hUEGwhi8ZqDqCpIR4ZFEVyWxJOrJxtlBRmfrnQSZK7Glf3bTiJWzbgd3xLC1HS55fa3XX5bO17UPkLmj7Vq5Sr/8Nrfd8xehIvMWtak+/YoP0yHnf4H4nLgJziviztwbzAemuoNrPe5WOH39TScyeEjmJsh93R+wN+My03fk5mXLd7pfxDX+B+ai3GVse7147PCSI/v4C/HGWCvxnlsHeyFmLJvqoOBl9WqlT/MNR1nHjvGK4B/8eLVbKMTLwP+3+jY+CVNvKfvr1UrX8SJuu/Aiadlhe+vwpm63zs6Nn5pyfu1vlatfB3nzfMwnAB8lt+GXX0Dr5kciIt2mylb/T17N85o+i+46nYPALeQGMNXcG9gK7g3rCf659biJu5rDy498pv+udNq92gPTqx9G7NLgdmMi4r8djMEutGx8Ztq1cpb/XF9Zgs2brbhIo1GSz5vi3FRRm9j9inZt+Ai7n7YLHF1dGx8U61aGcGlK77F3/9lRZbs4dsMt+F8aIQonMHhkXuHBvrLrirXSp67zWBp5rnQ6gVd7vLP/e/4dojIoW0FrI3nXGaXfeaU3+PeNi+KHarqhKXE4ypSnRIxK/rONKgAmEQ92VAtCkWvjN+VyQZchR5bgf2WE7GC76MUwrAqYXZZxntoGeip26ZgP1M6U8eLVXmdkevb/caMPDtwvh3XA9/HGQA+B3g6zotqwTxv5hZc6uOv/MP2L7g0nh0zSRvwjd17celPfwK+5/fxNbi3J2W9KVqOK+0+Ex7EvWX+He7N7//h3uRsma7Hh4/I+S5OjHwq7u3/Gb6BXOYN9yzgE7jIuHYTr/YC3oVLG5ytsHkp8Aac0Nrs+3kHcFmtWnkNLv3ltSU2IB8BvLlWrbypbMNvf83fUatW1uAq5H0CONY/px6LE053a8FLapNvJP7FP79+hYue3OaHHZFwNTo2bmvVigEu8c+iPv/sXYKLTn0yLnr0CJqTDn0M8DQvRm9vseO6Gmd8Pdsy7aPAv3vz9WbdmzfVqpW341JATm+lZi7wVeD80bHx0vzmfLrna+coXo3759oPZuN1VUBb6dZatfI2XKXOtzH3Kl+NOAD451q1csvo2PgV6kKKkijbX3IhzX/BJGb2nPkQLmr//4BfDQ30/xH3wnyD0gjbXMDyXAvmHrC7J4JQIsbEPlNZr6dQorJODErHYZlUhFMPaTGKOpP2aNl5KYFZgSisaBg6xdtUlFjdPGQdvcJx6f2Z3MadBt81zZ+qbNb5TknH4BuEG4Df1KqVi4GvAH8HPIXmpxeCEwmvwuVlfwuXJmiL8Lrw+3pPrVr5Ai7dbQBXOXDFPJ+Ge30H9qd+uDHTgJ7JPk4Am2vVypbRsfEv1qqV7+GiKs4GHlPic3k58KJatfKndkqB8EUE/pG5iVdXAYPA5UV5sszy+r6rVq18EBed+GbKq4R2FnBtrVp5XzM8W/wx3QbcV6tWfoUzxz/Miztn4SIrl7fA5bQBuAInPv8C5yW1Y6r7OEhbmvDTb6lVKw/ihOgRXNTZc3D+W0c14Zn8JJwnxngL3af74kTmh81yEffhfJPWz8PmX4czLb8AJ2TNJ9Hv6zeAL4yOja8v8Zz1+Wv2n5m9eHUHLrK06eJV5h7dWKtWPu1/q9+Pi5Qsg1NwLwjeODo2fre6kaIE1vjf04U6FF1JL4lH8NG4lPxrcWLW74cG+i8DbhgcHtnWzQep3QWsLbjUnSOyupHzpsqKQIlvFXFaoc2NwEr8r2xi2m7yqwHGK41SAH35Qzd5EO0VrzedBpiVkXJb0TYjcAXz2tz58qw7mGJcR7AWlwbSkfhIjit9tbNv4arxPGcOjc+Zcj3wOZzHzvUle5RcV6tW3uw7aW9mfsJ+H/L7+m3fKb+3QFNa6/9dX6tWvuU70y/HeceUcT77cGmLn8Sle7Q83pflZcxNvLob+Cjw+/kUr4LzvrZWrZyPiwJ6T0nCziJ/zH5fq1YuauZ+B2LPTbVq5T9xqdCP8h3lpzI/kaNbcdE9X/HXwa1F3b84n4xrvDD5M5yx9AsoN/LsBODUWrVycytc0z518JXMrYruD4Dfzcf++Ci7n+MiiQcLbiD9AvfS4wCc0HkAznR8edB824p7EXQl8HtcROD1Zabi+ajCx+FS72b727oJ+DTwvfkUr4LzuM0b9G8DPsbMrQGmy1m+HXZuM6MFRdewjSR1XQhDYuvyYlwRnf8bGuiPfG23dmNUVrsLWJv9D/2LDZjYVN2QiU8K/a5yFKCczxYbV/tz/2TS82zgi5VNI0wZoucbUVmbEdhMXuRWZOwVfG9sJv2QwHDeptbYwSLVZNwF3NrpOzk6Nr69Vq1cihPr/gfnDVQtcZVrfUf034FrmtVo829VP4HznHoHzYvE2obzS/oMcFHZBrq+03ZDrVr5AE6wexvOZ6doVuFErAta/RoPOlhziVTajotU+U4rRZ1575YLfMfxLZTjibUPLrLiz8yTYOmv6zVeoP01TsB6I+6tYjNSGCzOm+58nBnqnWUJJL4D/3tvLP1Hf+zLqo62yB/LH9DYjLaZnIyrkDjbiIEHgS/Ppz+fL0zwBVzq68kFLvrq0bHxD/sKf8txqcNLM/f8TpxlwL3AuiaJeEcDH8BVPJ4tvwT+s5Wq246Oje/wvliLfHuljJdBS3BVi39JC3rRibbnbpw4XJYPrAEOHxrov1jpaG3HElwU6COA5+GCeL4yNND/a7osvbCtqxBsPOeyCeAqMOvrmqwEhuyZCntx9l40nU2mTaURBsuzqYWbutVZcNFdWcHK5k0ZTRIt2CQbAvXu8PHsNkgOtKF+FS/XWsvEzq59Hu3ApYfs6IadHR0bt6Nj4xtwaSzvwJmLlnFML8X5Ub3JN8a3NXk/NwH/AXyKdFWQsjq8twIfxEVRfLVs8Sqzrw8BX8AJWDeVsIrdgUfXqpV2CE0/FFfRai4iwB+BC1qpg5U51+fiIhrLil44BXhprVrpned9taNj43f6a/s5fp/LPifrcdEhzwO+ODo2vqYZwoCvvvY5nFBXZorfo2gBfzHvoXQOs08dBB9x1AK35TXAf1Fs9MMxtWrloNGx8YdGx8bvGB0bv350bPzK0bHx3wfDpaNj49eNjo2vbcY1GhTEmItQdxfwEcqvmDabe3CHbxe9H+clVgYHAf9Yq1aWIkSxbMC9RC1bCOnRoW5bjH8GPRcXOfwl4IlDA/27d8sB6ISL9x5cBZIkWil1foNaftal9FkbRiqZuFxfqsofYGOBKRGerEkLXnl1ACMxKxHFggqHxsQ+VTaaNlhSbDaPs6WP0hnztjfpcifC1oS17JzorshTa+Nhi7VczMyc69se3+D9Ec7ovciO8HrfEXvl6Nj4t0fHxh+cr3QVL0AM4aIoymIHroriq4H3+s7GxDzs6wSu+si/4t7IF83DKCe6q8gO1q7APwEnzWExm3Gi5w0tfO+uxYlYPytpFYtxFUxXt8j+ToyOjd8AvBMXOVoWN/v7561eMGi2sfQ2nDfWW0q8/vYETvaRivPJI3GeXHPhF8CdrXB94tL9rixwsYfgihm0yrO1F5fm+hTmFqb/NeCSVkhhbXAut+IE8y9TTjqWwUUzP1t9adGOXScdgo7A4ApCPcM/6z4wNNB/2tBA/4JO3/FOELDuBH4byUT1kVST3a0280W+i1Ra3iJZg83oZfE3ScSX8QpL3pJtXJow8e3C2txttTN5BHXQYykQp+o+54zfaC1X3v62y7vxwWx9h3BzQcvbCgwDbx8dG/9zizRI78N5GZWRIroNF+X1emB0vv08fEfqQlwKRNEm3EfjKpm1MmfhzPvnEjl0Ba6ke0s/D0bHxm/01/WNJa3i4cALa9VKK72Zux/4POVUW7oJF8H4SR+hOl/ndSfupcL7cCkhRbMYV/Rh3gQsH331ROYWJXkX8JcWuk//gquoWRT74crWtwqn4Pzx5hI5dCPwtVaMbM3cg+tx6cO/KmkVewAvqVUrByNE+wkforPYG1dR9nPAm4cG+vcZGujv2PPc9gLWxnMu247zuHiwrjtPNlIqvG9tkEYYRDuRX5/PRV0FKX42R2iJ/iAI3IqmDzcs67hu09sXRmHVyxThdtr69bezAtNAnAq/bzSdMWAMlxnD/d341PKN/6sKFDt+A3xpdGx8XYvt6uXA10tY7m+B80bHxm9ulY6U7xx8DvhhwYtehktraUkPxFq1chTwBuZm2r8T+Cyuslk78CucuX5ZHcLnAse32PPqMooT3CMewqUNXtgK5so+lelbuPD+otOf+3A+GPPZjqsAz5rjMm6mhaop+pcHP6e4iLCllFdtdKbP1j1w6Z4Pn+OiRnCVG9uhbXQ97kVQWRF+ZwJ/o76zaDN20j1RWNbv71bfxprOsAMXuRkN7YIBjsVFuX8WOH1ooL+3E09qp+S/XgXmqkgcso3SCE0o9GQSBm36czRNkkaYfGuJKg7a1NhkGpMea21mfhPnNFprUgFg1mTvOpvSt+Jtb+PHTp4AZe30p/ViVWrwh+Y3lO+r0spsLvAH6ae0oBm+F3X+G2dMXSRX49KRW21/78SlwRVtwl1tlU5VpoO1ABcKPdeUtz8BF7eScfsU53k78EXfcS6DfYAX+4iZVnpe3VXwMv+CMwPf2ULndguuaMIfSzqvh87TvdrrO+9zrfR2O3BHi92Sv6dYT8lVtWpll3l+thqcb9pz5rioe4BfzKfh/iz4ES7lsQx/1F2Av61VKwchRPtwy+DwSKf7zWzAFY/5Ik7Efhvw1mkM/4yzLLkAFyn+ed/v+B0usv8a3IuXewrudxX9XDrLb/vLhwb6d+20k9vXIftxEy4K60wnV5lY9DEmTCcM/oqVEJ/FZ/Kmysxr44lThQFdVcC0ymUjYSUqVOi/MoEwE2+bsbHoZYKqhqnt8Os1wczxMqNqiS14D00mTBkz9fRm+sGPDwFX3PH2y7cj5sr9wHUtnHp1Jc6r6iiKE+FX4KoWPdSC+/sb4HvAPxS4v4fjDN1bTbQ7FngVc69Q9zPKKWpQptCxtlatnIuLqtm7hFU8CRcx86cW2eUJio2Q2+mFh3tb8PTegBOij/UNy6JYjvO0u3Ee9mlXnP/PXFMUbh8dG3+wxc7XWly0b1ERbnv78755HvdpT/8bMlfj/8tps8p7o2Pj22rVymdxlTuPLmEVj8L5NbbVb47oWmyLtnWLZAcuW+Ndvk+TzX2aika/a0txL45W4lLDD8Gl0B8EHIB7obM3rRMg9DBcsY1Dhwb6hweHR9Z2ygnuCAFr4zmX7Vz2mVMuwVUNW+Gq+5ng8jOxlXsoKuV5ZGWN3E2kcFmTXmTOnJEoZpLahxjyBLS8NWW3gEDlCVQwE0zrBbVItHNjm6c5WDv76RoJU2b2TeFrmKdS8R3IvS3aCYwaoztq1cpFOI+kot56Hu4b9q1YUWlLrVr5DvBM/2NZBKt857dlqFUri3CpbqvmuKgNuOirzW14710CfNN3NItmP+D5tWrlL+0SmTZDtkBrFvEYHRu3tWrlxzgh67gCF72U+TMI3x8XyTkXtlJ8FF5RHbyLgZfjqnXNlX39cubl98VHX50FnFFAp/DS0bHxe9rw+XATLgrjXNzLqiJZhPPC+lkLirFCdCM7cBHZ9w8Oj9hZtAvsJO3LDQTFWbzP1FL/m3gYcCTuZdVJ/t9F83ws9sAVlFk5NNA/NDg8cmMnnOBOKqH5CzC3x2buJnsFmsxVGX5Oh0kZsil/pHUlCCK2bH3xw7w7wIZVB1Orw9okzdFaV6kw9NKywXZmKxvG68hmTRbZkisn5a+Mjt/diKI6gq3e+b+YYiNJ9qTYyIiiudwPRbEr8PAWqGAWUgFeUsBy/oyLyG07vOn4N3CCfNEswHm17ElnspMWqGQ3CWuBb1OswLbM3zfzIYg8mrmL4A8Ba1rwPrT+GVKUp+R+FCOEzeU6eWkBv3H3+LZWOz5bd+JSCf+vpFU8GhftIESrMxtBpx1pSvt2cHjEDg6PbBwcHrlucHjkJzih/M24oJrn4ApEXTfP/aqFOP/DDw4N9K/qhJPbSQLW7biw5gl31SbeUabuvvV3b1Qd0GT9r/Lm8H9lxSaidMFIBMuYsdcFLdabvFsTiVjB90l+IrGkll2WsfE2RCmM0XbN+qk2TaGq0fRNEquybAMuuePtl+vNV5s9+OfAJlzp9aI6GAcyt6pMZbMFl0ZYpO9IxYsa847vED8LF5o9V27E+RO0K5dQXtWsI3FV4zqRbcC1rZr67E3lfwKFFxqZD0HSAKfjKiHO9ZxtaNHr6XaKS3FdyNzToufCUyim8uwain2R0ux78DZcUYUyvFKXA2fVqpVO6leJzuQ+utsvuFS8oPXA4PDITcBFODHricD/w/kL38f8CIi9OEHt/UMD/Qe0+3HupAftBDACZpMzR89+nUQvhaJKktrnp7JJBFYqeitlop4sM0+0CisfprUrW7dNyUqzTvGNrm2bOy4W1KxlYmJ62SEzEasaTTsPYlUe1+BCRUWX4Dupvy7wR3gXWjil2u/vbykutdPg8vVbZZ/3wZm3LyygQ/yX0bHxrW18be8ELqQcP5U9gNM7uJO1s8W3784SBIA9a9XKXk3ej8W4VN9OLsW+lXIiIZuKL9zwdIoROq+nBdPsZ8gvcUbMRbMAF4W1BCFam/UU9/JXTMLg8MjE4PDIZuC2weGRzwF/C7we+C7Fv8yabtv/GcA/Dg30797Ox7ZjGrEbz7ksKss9Hp8ij4tSCttZicNVFIVlgxCnPJnJZr2notCuhjpTEjlljYkFnySN0GbGBxFdZFMHcwZr0/sUbY6FiYnEaH6yIXV8phCx5imyarr8EQlY3cj1wF8LfKgva/H9vQ9nYF8UB9I6AtbjcD5kc2VtJ3Q6cWJlWZEOJ+IisUTzWVfC9bkHrghFM9lnHtbZbHbgorDaneNxZvRzZSvwB9o89Wh0bPwGXJGPMgr+rAJO0WNOtDjbaP2XPR2F9+FicHhkPc5K4DXAG3Av4pvtSboIeC3w2qGB/sXtekw77S3sWuCHUW80SRFMR1rZSNxJzdogOir+ZFMpfwR+VokAlo7ISsVlhQJYzu9/kkIYTZ9R4BKDrrTKZOqjzWYaSdXCwtR02AT84Y63X65w2O5jK84LqygOaPHIlK04X5aiOhB7tsJvQK1aWQzUcFVd5soDzE9FtjLO9bcop1LQw5FXy3x1njeVcH3uSvPTnw+m9QX/ubIDuJX294o5yd/zRXR6r+qQc/sTyhEn98dFYQkxF8rOCLiTYu0oxAzwKYb34YSsVwDvpPkvSxbjigU9vV2PY0cJWBvPuWwr8L9g0l5IYZQTXnrKphEG0VTZSCiTTBUvKJ00WO+ZZaMFxRFdda7y1MVZGZt2jA/z9PJIpS7a1KhGUVctHkk1G+6gPFNO0dpswxkjFtXBWEBrp8RsL7jzewit4YF1BMVVZluHi8xrd6HD4qIEykgjXAEc1WIG/t3EHRSbhrWE5heg2IP5r6xUNhO4VJu2pVatrGTulQcjtgI3tKrH3Ay5nHIKffQCx9SqlaUIMXv2x72YKIsHUArhvDM4PLJzcHhkHBgCXo17Ib+zydfZm4YG+o9qx+PXiT4Y1/qGP66Yn81UIrSJ5GSjaKwwYsrEflRpW3WwscAUuFyZtOCVFbSiNL84VTEcR5ReGESGEYhRhEKYSaoQBlqYDbY3TJTME6pMZ3ZXrqBz3gqKmXXyozfkRWFbfH8tTsAqajtb5fn/cIpLabuLzgmN34iLFCiDE+ncaoStTlSGuyiWMz8phEV4/Rjm19x8MiZ8R68ItszTc2l/4JEFPls3dMg9uAP4b8qJQqkAh+kxJ1q4bXY75UR3i1kwODyyFfgf4JXAd2iuwf6ZwMuGBvqX6CaZ7xb/OZfdBYyCncj2TM2UvdWsU3t+kmFa3orGOBUrL33PBhFfTjiz+VbslliMspHbfF06YuOetm39PnjRbPY3/QSiW1nTZRf9Jlwp86Ke/7vN587UqpVFuBSXIrZjJ53hWQPA6Nj4FpyAVcab0qNxUTSi+ayjzSN7cCmLRURvLqGYyqNl3H/WP0+K+H25myan7PgIyypwUIGd3h0d8my1uCrG95Sw+IP9IMRsWcHcK7xOxl2DwyNKIWwhfFrhNcAA8Dnfv20WLwFObrdj1qmViH5LNjw4k0aYbpNkTdlNJmIqTWRDFctQxtRNFHtshQJU7B2f9bvKTGDT2xdGYdURLN9amLBdJWDdDfzsjrdf3lU7LVLsaPKDfr7ZVmDntw/Yf55TyfbEmQwXdS3cRmcJmjcBfyphuUdQjOeYmDm24Gu0h+anPhe1/QuBVq6EVFTU1CaaL/4swhmKF3Vt3EaHCFietRRbFCViL1yFXyHm0i4q85l+jw5xazI4PLIG+DeciNWsNM/9gX8YGujfrZ2OVacKWFeD+R3YOI0wIUgjDNL/Ept3G0wXWbUn0yRphGFL1JlL2bq6gdEnkx5rbWZ+E9hemVQAmDXZVqPNqViYpCnu2NFVwUg/Au7VI6+reQgXhdUt7KTY6knz7YG1gmIMhqHYlJ9W4U7cC5miWQgcW6tWehHz0XEusnz2StpXjFwEHNoF5/xmmp9+txg4tcDlbaSzot03AT+nnBceR9eqlV0RYoYMDfQvoNyiHHf7QbQog8Mj9wLvAf6L5r00eCJwytBAf9uYDXWkgLXxnMt2At/HmaUSVwy0Ka/29F9BxcIwAir7qjQ1r02WFmpktl51yiy7XuKKzde9mXvyfYM0QpNaYd6f3SBc/OiOt1/eTdE30+nAb+yyfbZ0VwrpJjpLsDsYZyZfBEV7os07o2PjD+EisIp+sht/7PsQzWYrxb9ZbWdD9eW1amWXDj/n99D8SOE9KK7aqPW/O53iL8jo2PhO4I+U4wV0IOWacIvOZSXlpvevwb0YEy3M4PDI/cAHgF82aZW7AS9tp7ZETwef/9/iKo1gMlFToSG6CUSlOo+sukgrP5Vfnp30t94EBvJpASpPQJvM1Sq9QRkVbLLpO0ylyKR0Xgr8WY+5ug787V22zztxaXXa3zajVq0swHkxmQIfE1s68JzfRDnC3FG0RhVK0d3sD+zXwts21+fTNuC2Zlbv82nhRxfcGdlA570sugu4poTlHgQs060tZsEKyi3KcS9KIWwLBodHbgA+THMqaxucofsx7XJ8OlnAegjM98Buik5NOurJpHo9qc/GYoIoKkM25S/dpLF+HkuSRtgoEipJD7RB1UF8CmL0VZLmaK2rVJjyuoqXZQs305hvLLliFcba1IC1/2O7T6yZDju6bH87LSKpm+jzDf0iQ5Y7sdbqOC4FqWj2pnUrwHUyOztACLgNeLCgZe3vh5bCp9cWUalzzTz9Rh2GIiyn4j7KqWK9H8VU6RTdx+6U6wt4u/dZEu3BL4Cv0JyXswcDT2mXA9OxAtbGcy6zwA/xZu42iFpK93BCE3QbeF35sTbxmErPEX2fExFlfNRXkP4Xf53OYUytPxapjA3SEKNxsUkWsaSWk5Jo2yiHME+sMuSKVdlZrwN+tebtl6v6oOi2CCxD54g0C4FjdQlPqwN8RwnLXYUisJrO6Nj4/bS/B8lWintZcjBQadH28fIWvn+n+p04TPf3lPfiA8ANJSx6P5RCKGbHPpRXmXUrzYnmEQUxODyyE2fofnETVrcAeMTQQH9bVKju6fBzvx7MV8HuzEu3i0UTk/7VD/MD81IA43AustFP+aJVWPkwrV01CtMyGY8r6oWwzH5EX2zf3roWBTMSq6xN9dajaV1Imr3YWHu1Hm2iC9lGcZEP800vLRh50YKdrG3ALRQfbLtAHdx5o91fvqynuBcHC3Gm163mvdGHE9fm+sJg3N+/zeZgFGE5HW6j+OiGXpynjBAzZR/K88BaB/xFh7jtuBs4j+YUKTrCDy1PRwtYG8+5bAfwv8Af4wAmogp+YZskCZ2KorAS+aS+z+BSBoNPUcpfqqphdqYkcsoaE5i2m7iSYTLepxfaxil1dZ+tnbdUwrztIxGb4qGRWJU73pi6ZU8YgzXmXmvMj25/55UP6ZkmupDNdE4FmaJSdLqBm0povPSicu9i9p3+IguGnIJLaW0l+nBm3HNhC/DH0bHxrU3edqN7e9rc6q/nojmwVq306PCK6eIrEB5Y4irWUo7nmyiRweERizNz/1UTVnekH1qebni43gh8E7Bxep0JIq0gJRYlP//Zyn45cU+RCGWi9gI58+RVEQzzGPPrHNpsmmEYJmaDeUwwcRMSi6bpT9WwRZWaxg/WCVNYYyKRKle488M11uUEC9GNTNA5PmcHII+W6XI7xVfL6gF294bPQsyEOyk2EvREWs/IfRe/XXNhDfCbedj25bR3ZcpmstYPRdNHZ3oyivLYg3JNtOcrGlTMnQeAbzSh/d8HHDU00N/yvx8dL2BtPOeynWB+SRg2mfGNMhljLJOZLjSAt/H3aRf3UJzK88xKPK5s2jQ+xw8r/juunhj6X5EWszKzFxmFletRNQexymbEKpsjVjVarz/umw18zcD9epaJ4FLr6cJ9bmu8aLKiC8/dbCk64iXvR0eI6RJ5qRR1/SwH+lsljdA/n45k7mlgfwaunIdd2BMnwImpuQ9XmU3PVjHfLKe89K2twK/pvkJPHYGPwroUuLwJqzuCcgsJFEK3dB7+APzUGCbSqXZJtb/Es93ERuix0GTTdQpjoSUWmAKXK0MsJCVLCSse+tivIFXRBvFgLo0wiAwjkbzS6YImqUIYC2yWnTtmbq3RUDDKS/sLjlzWnyolVkX70kCsmmzdpsGAe3vw0zXvuEINAxH+KK/TYWhL9HZ6+tyLSx8VohWwuJeC2wt8FpxFueXjZ8ppwOI5zL8JF/0/Hx1GPVunT1kRWELMlL2AQ0ta9hbgd14IEe3JrcDPmrCeA4ClrX4wukLAcl5Y9ms4ASRufZmcFlm6CWAniZBKRwwFpljEUkyDACUbRHw54Szfv8rZZgUphcY0Nn7300zY+n2q86eKJvZRUXlm6mYSfyqTs9yJMP3PC1UTfshdf9DKyhGqGjWYv8r8lKMWrcsmOscTSohGrMOJtUK0Cn8o+Jo8Anhqi6S0LgIex9zS8G4EfjY6Nt4pHcaOFMVGx8Z3Aht0O4v5ZGigvwd4eInCwfW4Cu6iTRkcHtmOi+gt+3m1L7Ck1Y9HN6VvXA2MEL0Ny6QRpuUVU/c5HTGVntRYUpFSTmhK/+LHHlthdFecopgRv0xmghwPrsgUPo8pU/4ykVRkRKxG/lSxTxVM5lE1aSTVHLgJuGjNO67YrsfV7VrgAABJ5UlEQVSY6IaGtZgxvcDKDt0365+BonPOZzt3+q1vUxUZubIL8ApcFMJ8c6zvTM6WCeArdJbdwQF0blXDNRRXVVOI2T7/HllSe9YCP6EcGwLRXG7wQ5nshwSs1mHjOZfvAHuBMdxqbb1YFQY4hQmDNjTCIqojmEyTip2K9SYv/KSS/0KXrHSFvVBQilMKY9srE6QOpgO94uqFpNML81L+sr392fhTNVGsqn/0Wr6F3h4IIRrTiytB3als9h1j0f7cS/t75GzAeaoUyXHAc1tg3x4D7D+H+S8Fvjc6Nt4pL9wMzp+nUwWsrcBOPZbEPLIrLm25DDYBvxgcHlEUd/tzsx/KZGE7POu7zUD3BuA/gZ0Wp92kY63CyoM28U8PIqByawZGBlqhoBXqWjYj59Qtu17isoEYhsn4duWmHDoRamLHRBJRRSJWMQOxisz+TdOfau40UsfgL1hG1rzjii16dgkhJvk9272D928DMgbuFNbT/imhm4CLKNbjaTfgpbVq5aj52qlatbI/8DfM3gT9QeAzo2PjN3bYNbtbB/cZ7sd5BAnRdIYG+g2u+uD+Ja3iEhTB3REMDo88SPkCVts0+LuGjedcvh34oTHmj9k8QBtEYWXT/yJsJtgqidSqT0LMzEmYhhiNS3lo1S3BNlhOdoPS67cTaaFtAtLeVEEa4FT+VNHeFSJUTSeMK3/anVguwsxLJR8hRPvQBxxIZ6aUWuAOVEFItAg+jfAKwgrPxXAKcHatWlk2T7v2KOYWCfEjP3QaB9K5EVhrKV5QlrWBmMm18mjKqxz6K+BOHeaO4SaUDtqNJczNjcCXMWxO6yYm1VNIfTYWE0RRGbIpf+luhvXz2CAiqz6bzwTrwkdVBVFQJkwdTNIcXRqhidMDs+ufJ3+q+q5WQ/f4aUyb3rBxDN9c8055X82gEy9Et/6edXIK4Q6KjcCywIMdZDItms9fgR+UcB+/Emfo3tQ2aq1a2Q94IS5dbjb8Bfjo6Nj4PS3QIS6afTq4fVHG8Sr6eS06l12BxwMLSlj2rcBvvQG46AzuxkVAd32Dv6vYeM6lO4HvW8v/RU14U9em91pKHDFlvPeUryyYN0f8n0xeoP9pNMZ/ZzMxWFm/+DCaKxKpjA3SEKNxJpjG/b1zwjY35Q+KFquyG7fDN47/oOfVtFiAq+QkRLd2GvZnbpXDuontwC06DGK2jI6NbwN+4TtJRbI78AHgtGZVJaxVK304/62nznIR9wDva5H2ShleeW1h7NsiWOD60bFxeRaK6fAI4NCSlv174DId4o7iLiRgdWMEFmw859JbcBVi1oa/N7GmYrI9LJvRpLIpg4HpeuqLPNEqrfOkor0amK5jfalDgslsIqNF69zp/a+iJRbe6puLWBVu1PSVtNuBL6155xVKm5m+IKAILNEOHV+L8x0puoG/1He0xNRsQcbFYu5cgqtwVXS0SQU4F1hd9g54keyxwJuYXRTEZmAY+E6LiBb3+20qkoVApVmCYpuzE/eCQIjp8NiS2i0PAKODwyMbdIg7ivW0v4fmnOnp4n3/AfBz6wKtMlFVieISRWFl/a7ITJ0XhWVTVQ2zMyWRUy7CKlqWSaoLGuPH+/RCmxa+0kLYHNuOecqancb4Rsw95MsC30SVB4UoCwtsnccUsjI8nZYBB+nUTovbkaeWmCOjY+MPAhcA4yUs/lRgqFat1GrVyoISd+MM4N9wotlM2QJ8Bvi0j0hrBdaV0MFZAKzSFT8t7qZ4AVF0IEMD/QcBZ1JO+uB1wA91lEUn0rUCljFssJbzgfuTAKoossrUC0/ZCKiMemPrrNgzaYaBuGVtjlm7CT/Xf2+zaYZhmFiUamin0Q+dykA93LXppPyVx5+Ar6955xUq+ypEOexgflPIJoCHCl7mcuDhOrXTQgKWKIorgC9Qzlvh1cAngZfUqpXdil54rVo5A/gYcPosZt8CfBZ47+jY+LoWOh+2hGfrAuAoZE4+He5FApaYHqcCJ5ew3G3A93BiqhAzYT1tEOHVtQLWxnMutbi84AuwLo0l0WjSxlgpbcmPyGo6cRphxv4qip7Ka11Ym1O9sOEH60Q0G2xRJFh5P6wdO2z97OX5U5XJTuBLwJ/1HBGi1E7OfP5I7aB475zdmF0URTdyKxKwRAGMjo3vBD4F/KykVazCpROeX6tWTqpVK3Oq1lWrVkytWtm9Vq30A0PMLk1xPfBp4F9Hx8bvb8HTcjPFpmj3IQFrutwGPKjDICZjaKB/N+AJzL5oxGTcAHx9cHhEhQTETGkLj61uTiHkwb+/dIu1fBn39pA49S/6hbZRNFYoNJmUz1QyPozCStQiX0AwHEO64qFfpw21oyQezKURRhFWQXphuN54+2zWXCu/y9paYlXeZv0f8N9r3nmF/FmE6Fx24t5UF83Bc+3gdgEWuJHO8mnpwaWQinnAizgfpLwXT8uAlwHfAt5Zq1Ye70WoGbVWfBRXDfgQ8DngtFkKFP8GvHt0bHxtC3dCim5DHURnV3otituRgCWm5kjgaSW1rb4ArNEhFrOgLaocdr3h85YdXLtkAZ/2D5Ldsy38VMvIWG+onj9FWIPQ1E0HeAHKmPqeRDTOCWfO/yqeLBLBUtUM/Uw2SSe0E9RHWmWbdvPw7sxOsQmZ47we+Oqad14xrmeIEB3NduCaEpZ7sB86zT+vyKe3BW7ykTOdQh9wYK1auXkefd26nYtxItaHgQNKWsfhwNuBF/v1/aFWrVzl7/dbyY862gM4BpeqcwZOtDpwluu/Glch8fujY+NbWvQ8WOAm/4wt0ltnT+B4dYyn5KbRsfGNOgyiEUMD/YuAZ/m2StH8Efjh4PCICgmI2dAWEaRdL2DteP2lE+azp34feIKBFwb27UF/IZalkm9t2ocqFJsincvFUplAaAqitmw0rU30qDgSKsdQ3gR/pyZOmNgxUU5XZwYtprwe11SbYtL//ga4UM8PMYNOvVIa2vTx6zuctuBzWPHDdR12nVcK7Ize0qGdUFVhnUdGx8Z31KqVC4G9gHfhhKOyiITqZwL34V5+bcBFHkWRnT24iKED/bbsCSyZ5fq2Aj8H3gdcOjo23urpt2WkCEcC1kUddukuBxYVtKyHfAdQiMlYBbykhOVuBr6Mi7AWnUlPyf2em3AVLFv+IHQ9D5x96X3Af7obPkgjTFURjNL6AiMsIqErmSblQhXrTb6iYPxtOkwqlTIIKcf2KKUwSRc0SapdLJRNbXFVNHPNQmww7V04M1WVfBXTZbFvVIv26+zuxKUbFd3J2hc4tgMP2S4FNlquxVUqE6Lo+3orzg/r/cA9TVjlQmB/4Gicl9UzgVf54ZXA04ETcGLXbMWrO33b5KXA71tdvPIRiH+m+LfoC4Fja9XK4g67bPf0bYki+CvzWxxlppTZEZ5A1DE00N/nn037lbD4XwHfHxweaZfoakVLz5yVBT6vsmwHbm6H60cCVsLvgC8Y2GZz7itrbeKfHlQhzK0ZGEdLBYJWqGvZdNohdcuul7hCMSysiBh6ck3stNlyhYU9XaYrVpkGv47TELYmgK8Cl9zxziv0QBPTZRHlGGCK5vAA5UQCnVSrVvbqsGO1W4G/2VfholaEKByfWvcfuCis6+epbVvEW+rNwI+Bc3CVBu9ro/TULTihumgeDhzRYZfsYoqL3ryNNonAGhro76G8F4C96OViw/YJTmgvOmL4HuBzg8Mj7SSgLqTYNOduYF9m/zJmKv4KtIWFjwSsqBd19qUTwOeBn0fCU+xNFWbxBdhMsFUSqZVTXTA9JwTm8NG4ev/14HtTH9lFJtpr584Jv83Ta7NNp0jhVGLVdMZPum4bD5cAF9zxziu26GoUomtYRzk+WGdSztvN+cIwe8+eLNuAa3ykjBCl4K+vLwKvB35Ne71pt7jiPm8GXjs6Nv7DNrxftgF/KWG5R/qh0zqERXWibxgdG7+zTfZ7MbCipGX3Fvib1TEMDfQvxUWHHlbwoieAHwA/abNDsqLEa7BT2YfyBKxxJGC1Hw+cfeldOAPSW7Lm7KnPxjqT9rhnkU35SzeDrJ/HBhFZ9YFSJlgXPirLpIQxG3vBJ2mOLo0wKHU4SWtsNil/U4lV020JZsSq1IGy8ICFT93xziuu1VUoRFdxHy4aqGgOAM6oVSu9HXKclhfYYLmZ1vDHMMBS3QKdy+jY+DbgZ7gIpvNwPlWtzDbfeH8vziT+U6Nj47e26eHfihPhihYOlwFn1qqVJZ1wjfoqlrsVtLh1xFXN24KyRWWlENbzN8CzKT5181rgvMHhkYfa7HgswEVhielzCLBrScseGxweaQsBXgJWPRcb+AxxefEgVTBK9cPEJu3u/6b+FyH+TyYv0Dfbo2qCyTKj9EDqFbDsf724FX4/MWHjiK6S/Klm9IuYFasiL7G6wf0xYi0juvSE6LoO7lacV0vR1XJ6gCdT3luqZlNkyPiYH1qh4XqI7oKOv8ft6Nj4dcA7cZEHo7RehaMNuMpd7wZqwPtHx8avbecqnaNj4xPAnyhHNHw05VWZbDZ744oOFMHdwGW660UeQwP9FeANFJ9auRH4COVEXDaDsoTUng68hpaW2G66C1dIrS2QgJXhgbMv3QZ8GexFsfgTKDhxnFRKk8qmDCblBm3qCy8l5fhUpdMHo5kzy43FrTqVi4lMAcLp+FMZChCrbIOBtGjVcHrDddbwqbvefcV6XX1CdCXjuLz7ojkNOLRDjlFRIeM7gLEWKvGuNkiXMDo2/tDo2Ph3cZFNb8UJWZvncZMmcP5c3wAGcZ40Hx0dG7/ZR451AncDfyhhuccCJ/ropXZnBcVVy/wj5fiOifYXHhYBrwYeV8Jz7EvA99rIuL0Z9OHE6U6rUn4YriJ1GfwV+G27HAg1HnN44OxLb7fwcWLz0SR0KoqYyvpdhSTVBKP/+JS/VFXD7EyR6btPN4wFsqT6oQ1qHlqfUhitq88aeqyZkT/VZGSjqLLDhB/C6eJxNl0hMcSY1LDFwH8auERXXSEs6sCHteh8rgeuK2G5K4Hn1aqVTvidOxzYvYDl3Ab8jy45MV+Mjo3fDXzSd+ZeD1wI3N+k1e/wz5uv4SIhXg68bnRs/ILRsfFbfNRSJ3EP5UQELQKeT2ekAO9HMX6Jm4AfoqpqIsPQQL8BnoCrPFh0G/23wCcHh0ce0JGu0zf26sD9qlCOgLXdtw3XttMJFrmY34L9JLApFIuSr8MKhdT9Ztk6K/ZMmmEgbmXN3NOT59Y5THQx/2HxRB+9fsRcU/5s2p+qLuUvJ4oKa+rEqelsx/eBr975riv01qAYDqH4qiZClN2hvRe4Eij6ObAAl0bYCakuD6MYn5Y/U05EhhAzueft6Nj4LcCXcSLWc4D3MbeKpBYXjbADV4FvIy597gbgW8C/As/CRVq9EfjM6Nj470fHxtd18HHe6u/3MlI2HwMc1wFRWPviIlznyi3AL9qoSqVo7u/3Owu6zkJuBT4yODzyFx3izmdooL8POIFyTO/XAN8cHB5pm5c46uw2YMPZl+7c7bOnfBE43mBfijGx2JfSlnw4U/iL1RNNZZJpEr3JRU+ZnJYX1mJMnTaV/hD5tRsfm2VdVFYvLgJryhaezW/1TXt6kzkGs+caYPjOd12xVlfb3PGNyG6NwFKDsf35OS4a4uCCl/tw4CzgP9v43l5a0HHZhEuX2qbLTbQC3mPqHuCeWrVyKc6L6sPT+B3bivPreMgPO4GbcCmJa4Hb/edx4F4//TZgexcKDH/AFco4s+DlrgCei4ug39Gmz9ZeYBWuGt9c+QFtFL0QtOjLbDN2fdtsaKB/JfB24PSCF/0QrjDGT/VL0jUcADy+pPv0v/xvZtsgAWsSNpx92frlnz3lIwbzMOB0fMU/Yy0Y47UlnxdoTMpWPaoTaFJphs783QTpdSatUPk5LNaGIUwm83vjpwoEq8U2icCKlzVDsaqukKFJ+38VyAPAEDK7FHNnIa5CWzfRiY3CP+Cq4xUtYC0DnlWrVn4wOjZ+W5sem6I8D8aBnytCQLQw+07RoZ7Avfz6b99xW+OHbXnPSF3r4Dslf6J4AasXeDrwFVwEbTuyHBcdM1fuBn40Oja+pc32fzEu1b4Mev2yDV0qZA0N9C/BRZg+r+BFbwYuAD41ODyyHdEtbeWjgBNL+o349uDwyNZ2OhgSsKbAsOla2PXjwHkWDgiCqhIlKj9cKlWD0NRNRxw9lRWJ6sZ5gSzYKB+FFVUzhKUsZAG9TJDKbowXmBWmyGslmuJexdjJv7rQwIV3vusKldht1cu+fVjiOz3dwgI6w3cky0bgx8BqXCRhkZwJPAn4XJsemyI8DyzweVw0iug8dm3nja9VK/sB/wC8YpLJtuNSAc8FrhodG1fHbRqMjo3vrFUrPwOeTfGeMBXg72rVytWjY+PtGIW1J3B8Acv5IXB1G+7/IoozsM/SCxzYrffd0ED/AlzBijdQTIRf+Fv+HeD9g8Mjm9TnaEgPxdgutMr1tCvwQtxL2aL5Fm1YwVIeWFOw7uw/WzA/AD5DXDEn+0Ihbe5eF8UUm61H/lamzuoq9tgKKw/GgVsm8+yKZnR/TwB72MUstL0NPaqy3lRFPi1szjDJtJdaGLrzXao62MIsLEFEKJNueru3hOJ9FFqhk2WBEVw6UdHsAry4Vq0c1oYde4OLEJir58GVuAiBVupk9pXQcO3WiJt9atXK4ja8vntq1cojcKbu/zTJdb4TJ8C+dXRs/HKJVzPmF5RTKKMHF4W1uk2PyyrgiDku437gx6Nj4+3api3rmdlDMZVz21Fs6PP3xTspVjS2OO/gfx0cHrmnQw7XrpT3AuYAOsBWxRcBOAnn6Vo0fwS+Mzg80m7RoxKwpsO6sy/ZBvw7hu9bG3mcJ45WjshAPRCgXDJg3c+ExWKN8ZUFoy9C03eT+lXJimNJNUJ8GqFlge2hJ9qGmZupz+jpOQOxKjvcZeCDxqUAiNZtiKykvLdyYm4YOjdy9lbgopKW/UhcRcIFbXZM9mXuqT8TOH+DG1tIuDC+41jk+eihzSOR5kAZYmCp579WreyDS6/5L5xP3WTXwm+Aj42Ojd+hn4BZiyw/wHmBFc2RwMtr1cqKdjogtWplF+CJzP1l3Sjwa11iuRyGeyHaNfjIq35cJfuDCl78b3Hi1U0ddMh2p7xIqYW4SMB2ZxHwKoqPoH0Al4balingErCmybqzL1ln4N3ApU4qCCKhgnCp3JqBcbRUIGiFupZNpx3iBavGmeM2JYb12R4W0MMi0+uXV4yOMRexKtr8YNhknJHyT+561xXypSiH3Qq6p02bPRu67XrqyP0dHRvfBHzdd7aKphc4m2LSRZrJocxdwLoYFyHQainbfSUsr4JodeFgCS6l93zgY7gomMl+byaAb4+Ojd+oozfrZ6vFpYmUdQyfD/xNm1UkXO6vw7lwG/DZ0bHx+9r00jAld/D3YO4Rbm1DIF59GCfeFcnvgTfTnqmqU12DZT03dgX274Bj9CSc2F50PMpPcOmobYkErJlxI4Z/weY3Amwm2MrG96adotfpxS2blr7sZP3WwOhqoe1lse1lWc8ieqbpup4VmxqJVdMVsTJiVXZNFux/A5+5611XbNVlVBoH0n2+dj102Ru+DufPwP+UtOzDgbfVqpU926Sjv9A3WuYSDbkRF+FyrS4tMc/Xs6lVK6twLwI/7UWP6Ty713uhQMyNO4CvUs4LkGXAW3BiZFtci7hqXnOJkNmJS3v/bRtfE2VbEhTlMdby+LTBfuCDJdwHvwP+EbhkcHikE19gliVgrcAZn7fzdVXB+ajtV/Ci/4DzUWtX8V0C1kxYd/Yl1sAvLJxrMetjkcdYZ9Ie34lhOmCmtRD5YRnrUwG9uGXz7+d4tLVx6mCcnuiX1Wt76KOX3qASYnb9k4lQk4lVhsnEKaaxNsBFrX38rnddcbeuolLpxqIMnfKGRQD+TfZ3gDJ+VA1OEHqFF4danf2BF8yxcfdb4MIWrcamSNwuwAtXS4GXA18D3sTMqo1aXSuFPFu348zG/1TSKk4ABmrVyu5tcDiWAS9ibh5N1wGfbMPKgyFlF4XZAzhzaKC/t5PvraGB/l1wRSiGKDbibAJXbfVNdK54tRdO6CyDvYFT2/i6WgK8EnhswYu+C3gv7oVx2yIBa4Z4P6wvAZ/B2q2xmBSlCdrEwyrVSo//E+QFBrl2rppgYgbvvrZJxcFMmz9MWFxILwttL7v1LIp9sGbhT1WIWFU/1t4K9n13vevKP+jqUYewBHpRBFancRHOr6UMluJ8d57Y4p3+HlzFmcPnsJjbcG+DW/XFwWI6wGB1lizshvaXN5Y/E2fAfr7vTMzUc2gPin/73K1c49uvO0v6LX4Rzg+r1b0GnzLHju1G4CO0f2RrL8VWyMvjdOC4Tr2hhgb69wHeDryLmQnzU7ET+J5vr1w+ODzSqVXbyzT67wNO8eeo3a6rXtwLzNdTbHDCA/7ZdVG7X1MSsGbB+nMuedDAR4ELgYm0J1X2v7g2ugm+t6HeYPLCrzJRUdHMmeX6YoaLrBOwnAeWyY2wKieyyuYs18WJGWsx1m421pxrMT/WVdMU2srIV4g8vBfWl4CbS1rFIbhUwhNa+DAcDjyP2Yuzm4BPABe3aPQVvrHf16WX+f4UK7y31Dn2UVdHA2/DRV09j9lHehigVqtW9kLM9dm6E/hv4P9KWsXuwADQX6tWWjLqplatrPTX41yiPr4BjPjj2c4so3ij8SzHAk/0KXYdw9BAf8/QQP+JOLP2f2TulYJDNuNE/8HB4ZGbOjTyKkq73Lvk1ZxKm0VhDQ309wDPxKXbLy/4uvoM8MXB4ZG2t/ORgDVL1p59yX3GmPcZ7MV5flfZlmVeFJb12lW+T3skB+H8rmKBLKl+GKUULrA9LKSX3XoX5Z7QxmKVbTik/5eRqmw0uJRFY93QY8FY4wbMVmPNJ4FP3/2uKyd0xZSOwZWM7bYO4TK6S7TrFs+v3wDfBLaXtPwzgPfWqpWWM/32USuv9g3/2YoZ/w18aXRsfFsLn+MyIrDa5VlQ9D28B3OvplbU9bsr7s3xZ4B3UExUwpO8KNKtgmdhjI6NjwNfANaWtIpDcNEoq1vU1P1pQG0O818GfGJ0bHxdB1wOBzThmdkLvAI4uYOEl8W4aMNP+X93KXDx9wIfAt4yODxyS4c/jpbgKi2XyV7AM4YG+le0ybXVAzwbFyV1aIGL3gZ8EvjY4PBIJzy7JGDNkeuAfwauDk3VbTrMyvcoskmAmTTDQNzKmrlHk+fVObRYFtoeFtkelvYsxDQ0cZ92yh9EUVRJJJXz+PJD8j8vXpGIWMEwYgxDd737yk26TJrGioLu6d52eDb4NKsi/a/aofPbFZ5f/s32J3EV9MriqcBHa9XKYa12aQN/h/MnmW0H6+OjY+Ot7jnYW/A91+fvjXa4j4t+vq4suBM122fyQb7h/R+41MGionB286LIC2rVyi6IufJdXJp2WS8Xj8f5AT2ilUSsWrVyDPBGXKTYbLgNeN/o2HjbV4IbGuhfCDysSat7GPCuoYH+Q9v8mPUMDfQfgaueei4usqfI6/sGf31+fHB4ZH0XPId2pXwBC1zE5SPb4PraBWcd8WGKrai81f8mf3BweOSeTrl4JGDNgftffYnFmeT+K3BL6GlVb5hucu2v8JFUWVztvpzqhZkPBsMi28sCetm9dxG98SmdjlhFQ6EqiKRKxKroSW1zBKt0iNcvMLx3zbuvvENXSdPow735LOLHdA/KrUxT5POrSMPY5W3wTNwF90apSBGhVbkN+ACuelZZ188zgY/VqpWHtUJHq1atHAu8FfdmfDb8Ffjw6Nh4q3sOGlx1oAUFX8stn2ZWq1Z2Y26VJRtdy2ae92sZznPt7BL2D//7dj7wkVq1ckqtWtmzRSN8Wp7RsfEHcULjWImrORWXxnx6K0TO1aqVfYB3AifOchEbgGGgUywxFpUgwEzGU4Dzhwb6j2k3U/ehgX4zNNB/IC6S7DvAa3AvDYpiE86s/e+Abw8OjzzUJY+ilcw+0nwm7Aa8uVUF1OD6erv/jStSvNqME68+0M4VBxs1esQcuP/Vl04Ytn0P+JCFdaGnVX1FwGy9PxfUFFcmjL8Lk/x8uqEN50yqEfbZHpbYBb713sPSngWptWUlrLRYRSJWEf2b3m4ztViV3dFrgPesefeVY7o6mspBFPsmox06Bwtxb3qL2E4DPLzgDnUZ7E9xngGLgGNb9Tx776Zf4SKxyorkjESsTwBn+qi++epgrQL+hdm/KbwPV1nme23wvFoIHFZwG8T452Crd472KEHgOQD3Nns+OQwX1big5GP3BmDE37P/UKtWnlyrVk6uVSsH1qqVPdrAQLxVuA73pr/MN/Kn+uf3M2rVyryluNaqlb2Bt+BSc2bze7cZ+DTwqdGx8R0dcv4PpbneQD3AWcCXgecODfTv2uoHKBAWXoXzpPoUUC34N+ZuXDTXqwaHRy4bHB7ZQRcwNNBvcOJVsyLgTwfePjTQv3eLHYdFuKj7f8dldBXZNliLewn84U4Tr6B7DVQL5f5X/8Hu8bnVXzaG3bC8BxNV9ciKUUkQlrEm+CpSp5wwlc0CrBtnnYpkgV4Mi20fGCdgrehdzD07H3LCVBDxZYL/Rgs1ec3/6YxrzF9xYf6/0VXRdB7H7KM28jgTV/lpTQvv827ASQX/wO3tr+OWw3sjPbHATn9U2v5S3NvllmN0bHxzrVr5PHA08LeU89Klxzcg9gQ+XqtWLmx2afRatXKEb2g8e7Y/Q37+r4+OjbeD5+CpwKoSlnugX+41LbzvB1O8cfLRwBm1auWmeTz/u9G8l6L74ny2nuc7gPf6fzcD62vVyhac6L3Gt4Ie9ELNTmC9n9biRN/16YZY3d+0cCGEuTxbd9aqle8DR+DM9suqRnccrujR4bVq5TPAA808nt78/59xUTOz8Z7bgvNz+/Do2PjmDhEPFuMiJecjYvUkXCTbk4YG+v8LV1BgK0ArmJV7YcV4YeVJwLOA1cy+CEUjJnzbawj4yeDwyMYu67Msw0WcNesFap9f35ahgf4PDQ6PrJnna6wXOMH/jj2H4oW8v+Kyw749ODzSkVY+Cr8ukJWfW717j+Xd1vB6sIuMD1VKApUsPVF+oTEYY5MUPWsxxk0bqVXGa1zuX0OPV8Di6bAsnVjIY7YeyKqdK9huJvjZgzdz6eZMxs10xaq5sQ4X/vi5Ne++coeuhqZ2fg/AvR18WoGLfRB48ejY+PdbdJ97gFcC51FcGd5tOPPMDzZbwJjmPh8H/LDgzu9637j/TCt30mrVyuE44+FHlbyq+3EVps4FxssWA3z02yOB9/h9m81LpbXA+3DRAS3fwfIm3x8F/r4EweNB3EuU81rxevaV2f4Jl2pX9K/wH3H+GTeNjo1vn4d9OxC4gvKrSs1UfABXDGKz7zRuI4no3Ow/bwFu9ePvwQlbD/lx63BpzNuAHTgRbGfwt21ngctX5RsCXlJyn+BBXJrUh4A/NiOSyf9uvAsndC6Z5fXzWeA9o2Pj93dCe9Gn7z3Pn/P95nFTLHAnzrPx+8DP/H23dXB4ZGeTj4nBRY7uhosKeg7wWNzLht1KWOVanA/dx4DrO7XK4CTHexfg9b7ds6TJq98M/BIXfXo5sKVZ15s3aF+Ce+H0Qt9nO5Rio5Z3Ar8G/g349eDwSMcWUZOAVTB7fXb1Smv4F+C1xtAXRT6FIpaLvjLub5NMYbynVRRtFQpaPQTpe/47sCyfWMwTtxzC/hNLsQau2nIXP9h4ffr9YflneZ2/WT695t1XbtZV0LSGZ5QyMwi8luIrW10JvA64tJUa6F68Og34T9wbjKIbFh/2YsCGFtnfXlxUyUdwIfhF39HjvlPxQ+DuVozg8df6ybhc/rLTHnZ6MeATwChwR9HXv9+fvYCn44T/w+dwvb4f+M9WFF0b7PMrcD5fZVUFGvfH9LvzIeRMsv+7+Abrx3B+TmV0CK/BCb0/xXnINS3axXt7fQsXtdCORG4LkUBlSQtWD+IErXtwgtadwO3ATTjha6OfZj2wvZ1ELV/I4uPAMyg3is76+/PTXrS4yRfsKHp/dsdFkf8rzvNqNi8Gosir94yOja+lzfGd5wP8Of6nkp5Bs70mtvj76lfAL4A/414mrQMeGhwe2VbwsTA4C4U9cN6nFd+mfKpva+1KOano23Ei/xBwkd+3rhCv/DFf7K+7l+IiIlfM4zW3Dudn92PgKv/cXosTUG2B+72AxFf4eJx4fCou4r/oa2w98DV/fd3c6deWBKwS2Ouzqw+1xn7YGPMcd4HmRGHhx0ZRWDaJyAL/t0kS/0wgYkVRWGDZc+cuPH1rheV2MT3GML59PV9bdzU77cQkFQkLZTMuWuGDa9595Uad/aYJGvvjwppfhkt/Kstf4krfsP0ZcM98Nsq9cHUY7s3YaymvLPMGnFHnd/z+3zUf+x3s7+Nwb8fPoLy0742+8XgRrvLfdaNj4w+12HVv/DH4BMULl3ns8I3pb/pj89cioga82fVqXPpmP7NPTbjZ35sXtKp45Z9VK3Fvso/C+Y09rcTnVcStwNeBH3mB4Z4yOsrT3P+9cWlUj8e9dT2oCau+EfeW+dde1Lq+bEHeG3W/FhcV2w1ty/A34W5cysYdwPU4Yetm/+9fR8fGW75t5EWsj+FSpkwTjt2VwH/hXhJcV8QzzPtsneDvsxcy+2jAe4Gv4CoOtnXJed+Bfpj/7XweLtJ3UYtv9v3+GXaNv4/+6gWHdb6tso4konLD4PDI9hyxZCFJ9NQyXMGf3f3v0b5eSDkG5316MOVb6tzo25QXDA6P3NAt/ZWhgf7dgCNxL+kegXvBcTSt41W5w7cXrsUJp7f45/l6f51t8v9O+OfWg4PDI5sbXG/LcBFWK/w1tjdOHD0eOMX328p6QXAZzqPt64PDI1u64dqSgFUSKy847UiD+aCBZ4LpCf3Oe2I3rCCNMCVgJQJVFIWVl0Zosey3c1ees/kIFpheent6uHvHQ3xt3dU8sHNLYQJWNpgr+LzNdyY/fOe7r7xHZ72UDnt02JfiQk2Pw71RPN4LOMub1Ji4FBdu+0f/kL+NJD3DQjE+IZl9Nv4H4Ui/vw/3PwInUrwfQR53AVf7DsnVONPbv+De0hS2z5n9jqpJHo97S3N6E/c3uqev8ft5Ne7N1J/8sdhZ9H7PspP8SFwK1uomrXajPw6XeEHgd/6eiGl0PDLX8/5exKjhRMkD57BNV+HC738w36bCfh+j/VxI4vF0jL93D/Pjjmhyx2nCi1fj/h6+wX++xT+/Hsz+zM3mus7s/2K/n/v6fX+Yb7gfz/yk62z1+x3t/7W+Mxg9xyYoMAWuVq1UcakxqxB3ewHrBn+//sr/hu5o1egsn3L3YWZvdj6b35s/+2fr7/xw83TuyUzxkZW4iKsn+mfsw+aw/bfjIpK/5Ks1trpAED5/rO88H4SLtjrSiwUn4szHF7XpvbQDeMALCRv8v1v882td0BYNWeoFrKj9HAlYe/p2ZbNY64WrrwG/y4ptbSxMmRwdoc+LNof73/2H+9/DI33/ZWmb7N6DgYD1UEbA2pBpO2Svt138Pbiffy4tLHlb78GJ7V8C/tzJKYMSsJrInhesPty4N+RPN5je6GD3EERaYX06YZBGaIw3YQ8FLP+vTbyxMHDEjuU8ZWuFHnro7TFsnNjG9zdcy/Vb7qdnhgKWndn3W3EpXB+4691X3qezXWgHfRku5PQgnOHl0f6HYG//QFzO/FQQ3eF/jNf6Tv11vrF5g+8Q3e4bGVtn0kD3DdFd/A9Axf/wneh/+A7yPwZRo2M+nlmW5K3fvb7B/Qe/z2P+B+6hmabe+Qirpf6chqLkYX5/VzK/b6m2eqFmre/03+TFratJvGE2Nbsz5q+XU3GRHqc1+Tq4x4sfN+IiCK7FiXu3+/sjZH/fiTjBn98jg+t5LvfgKC5l+9L5iCrKOR8H4qLJjsWJr7v7e3UF818ZL2STb5RGqV6b/bNrAifSfmmm0Ra1amUpzoT1DC9a7eWfz0v8v620/9Y/n6MO4IN+/38B/FcR6Za+0MRbcb5DrV4NstnP0jW4F0H/5cWsDS2arn04Ll39mU1uZ0ReYzf539cb/e/OX/3xC6/jvfzz9Tj/fD3aP1v3nmMb4Q+4FwM/bfWU7EBEqOIKnOyHeymy0rcrdg2eRWJ+2oy/AC4AfjU4PLKhk3ZwaKB/CS4V8CSSF3Qr/fW2uxdzdpfOUGp75jfA+f76erDbDoCqEJbIfa+6+Ka9L1g9CGandakifUkVQpJ8wCgiK/ho/HfWJgKXjcUtsAZ6rGFXuzDwzTLs2ruQ/RYs47ot90363LCzELGC7zbjSiN/8G6JV0U2HHtw4bXv8x3BXtwbswXzJFjlPS/2JgnLf4TvUG/HvUldh0sn/fcZLnc33+l5OYn3wKIWej4Zv427+fNysu+0bse9+fsp8E7f2J4JewJf9ctbGJzrVmGRb5Ts78WJnf48b8OJdt/wHdWmVjgZHRu3tWrlUpyJ/weAJ9OcN8sG52Owjz9nz/LXQGzmnHO/hPfwXBtydwNfxEW93tFCURyPxVUxa/WO0pKcbTzT/3svLuVupulCD/fP633aoKFufId2OS4iLtr/w3CRLzcWcG9uqVUr3wL+Jji2wj0DDsNFITwZJ2CdW6tWLm61wgujY+M31aqVf8B5fP0dzYnyBid4r/C/NU/1z9bo+Zp91vUW3D7a4H/H3wNc2wovBqbJ0bi0oVP9MZBYML/s9L8llwGfxwlYGzstKsYLp8/x7a/l/v7s0elvCltwEb2fBy4E1ndT1FW2gS1K5J5XXTy+9wWnv904JfoJcTvS/8ykdCzjlal4REIodUWRWz0YVkwsDqa0LOrpY5++pSwwvbEPVl4vZzo9H5vT+sWJV58CPqTIq8LZBfcm7YQ22d6ocssC3zGMKriYaV5iEUfgzMn3a6P9XuyHZbgooIOYuYB1hG947t4m+93rr9Fd/DafxDwJbl68+YvvaA3gPML2bPI1sIjmCGfbcL5knwYuHB0b39YqF4SPGD2C9n3LH/187umv65nsu8GlyrWDeDUZUcRcUffmNbVq5dzg2Pz/9u48Sq6rPvD4977XmxbLlhfJu03ZM4QDxRLAY+MQtjokJ2DDkBAYziQsAhMgQ0AMZEKwCSZgwsF4MjPJyRBss8whDpA4IyBgXJhlkGU7YBnq2IBllS1Z1mpZ1r50q9/8cW91l9pqqbu6ulXV/f2cU6ellqq636336t33e7/f7+rI/e1k4g3NS4HPVcqlm6u1er2Tfslqrb6xUi59mJih915iZvRM6p2hc8swMav4JuCmaq3+ZBcFEfrTee9SDFx1grXEmyC3AiuX37DiyVm8rRcTVxFcPOY8qulzmLgAwAriYikPzbXVK8cygDUDti5b9aszbrzs6pRj9fKC1MpqTBZW0fQZ8JRPg5SJVdDIzoKMwMKiN2ZohTDy74t75rG4Zx5bB/c+5XWKY8zgJ/D9Q8TMq7/afM2923xnp+V4PK/Lt6GVE9kSYklAt1rMJO9Sp4vf/i4/8W9LJ9UTeaH1aKVc+hix9OMDxJKS2TKZaqzYdTPwlWqt/nAH/o7ziaVzc1HG9CyxPhusIGYbfZwY6NfRz3sfAp5dKZeurdbqP+2kX65aq++qlEv/m1gq/8fEzLG+WTT+W4l9ib4C/KyTViydoKcTM8ENHpw4h9Lc41vE4NVPxjb4nqWuSHMtTb+DwErgG8B3gV/M9cBV8wWzZuJKb9mqVUtuvOw9xN4Cry4o8kbD9hjCGpNxNaaMcLQhe/oeMYB1ctHftMJh/D9n9C3k9J4FbB7ckyJlYcoRBkZ7Xl1n5tW06WXm73R2yoVgN/dL2cPRmzrOdo3G7if6QmtnpVz6B+LdqXenSf1pXTyxP0zsBXNLusB6sIP7scyn9ZW+ZoPZMJEM03BMHqqUS39PzKp9NwaxxtOXLgaXpIynH3ZSX6z0uXN7pVy6n1ji/05iX7+8i4/Xx4FvErOu7iP2r+yq4ziVcF1BLO/XzDpALOf/f8DXiP0TH1t+w4qDc2HjP/v+K88jLpYwz11hWueAu4FVxFWwvwdsWn7DisMOzSgDWDNo67JVDy698bLlwDCEKwj0jG1/RSgoijA25hRnyUVBaPq/vUXGgqJ3tCF8+reT8n7O6VvErw48HssIp/6rj/S8Mnil42j1LmY3Xwg+SWyOPNcu3Dfz1MblJ+pCa6hSLv0C+CDwf4E/IZZ2nt5FY3qAuCjCbcTGrw8Cgx1+cRUX1p0dE8Y52UcibfvhaTgmd1bKpU+kz8f3dtmxONPH0KXA54G3V8qlH3TaMZ9KCj8DfBt4H7EdxllddOwPpvPVD4HPEVeDPNBtgasm89J70OfhMyNznd3Em0r3EzOtvkPsEbd/DmbDNFZC1/RcS6wjrsr61fQ5tXf5DSuGHJqnMoA1w7YsW1U/88bL/hQoCoorA6Fn9No9HNnrqikLa/STNK1UWAROG55HThZbaqUm7o3A18UDp/OTvY/xxND+qQaw9qYTvj2vZmaStZbuLSMcIq601MoJvZvT4Helx1zaZoiZQR1TdpEuRvYTMwbuJi6I8EbgxXR2iepuYvbY7cTSqweAoksurvYTV6rsdlvTtsy1Y7gxad45TcfkE5Vy6fp08fdfgWd4mh9XCfgUMfh+V6f9cqn33upKufROYoP+NwEVRhcE6EQHiSsF35GCDivp/JsCE1EmLiij6Z3L1okrDd9LzLh6iBTsn4tlXJ99/5U5cfGmJe4ibZ3/PUBc1f1HxFWm18/VfWwyDGCdAJuXrVqz9MbL/izNfl9TQB6K0cbusZk7sadVwVGzsQrglKKfvKn4MLbBChQEzhs4hXP7T2bH0P4xJYhjFWPm4sXYie1fQviyPa9mRGMFk241mE74rXyA76Z779CvbZxwJhNsqZRLG+iQDKYWbCE2+O1I1Vp9F/C1Srn0PeAlxLvVr0qT/k4IOhRpYvyj9FgFrOuk8qFJXCA+MQs+e9cyySBOtVY/XCmXZsN5cWN6TNexuK9SLn0hTdD/CHgNbWwaP8tcAlxdKZfeU63VH+nQz9YDwPcq5dIq4DLg5cRytmd00DXFeuIS8z9In62/6sIeV8dyEd2z+Euna1xSbUmfUT8nlgU+lOazG5ffsGLQYQLgVLwJMdV9LRCz9+4h9k+7Pz3WLr9hxSGHaOIMYJ0gT8KaxbCcwPpQ8K4i0N/Ir4opVY31BtNeXzS+PRrROnV4IGVgpSbuTaWEfVkPz5p/Fr/a/ziHhoeajp3jHVsjX7cD1wJ/v/ma1ft9x2bsYvAuYn1580X2EKPlLSG9Nxua/k8g3uHe3qaL8wHgXGKaemOn6E8X/wNN32ssZd38e/20hbubjxBXAlrKUwM6xypv2UtMt213+UuRtv+0cQ6aLH12BmLg7c4WJ8ePE8sasqbtHk4TqW1j3t9txCyR6QhwFMQMpaVjfmYJWNA0Br3p+zmxFGNLpx9Q1Vr9CeDWSrlUJWaSXkJcAewFxMb7/cxMGcxhYsPXx9PY/TBdWD0K7O7WjIBqrb6/Ui5NJHg7fJS/Hyt4O3ScfT07zvzlaP9+rPf5rhb35/XAjjSxn8hF0vG2r+DYZdiN4y+bxL+HY5wX9qXP7MFp3k+GK+XSnekC8TZiIOt5dO/qldPplcCySrn0yWqtvr+Dj/19xEDWSuCLxNWTryRmZ52R5goz0SurSHOnPcSSm9uJNwUeBnZ04U2BiViCPYgmu48MNp2Hh4g34B4i3khanc7Fu4DHl9+wYq9DdlS9wEKHYUL7W2M/G0oBq/uJgdGfpuuWremaachMq9YYwDpRkYplq4rNsO6cGy/9REEYBP6IgpNiP6zmQsKQCgsZmYPG9QozTi0GyMNIByxCUyArEHjmwjO5a896Ht6//RjBq6OuS/gg8BHg1s3XrLb2duYmhIOVcumL6WTauOAYJN4d39n0vaNd/B3vgm8yQlOA5ljfO424AlnjYmk3rWVgrSf2LjprzA45nAI8249xUTxd+2fPOBeJRdruc9Of96cTUyt2ERvjDnJkQPJoQbtp6VNznAv+3jHv90XpgjOkyd62Ljq2dgM/T82Ib0nv3yXE7IFyCkAsIgbs+tvwI4fT8fBEOn5/RgxY/TiN24FqrT5bGnLemy4YzyT28do35ngZG5CF8QOyIR3TG9LxEcY5BhcRm0n3jnMSW0RscNzb9L1zGF32m7QvD6TPl9tabJS/mVia9IK0LcPEwPrhpu3ZlbZnaMz27T7Ktu8jZoONd7LuTduxaJzt7k3bvajpOfM48oZElv48kC7gvjlDx2ABPJ4WXLidmBH5e8Dzidm3GWqce94B3Fkpl77T6cHtdNw8WCmXGvvSkvSevhR4YXpvF6UL33YEXYp0jO0g3hD4OTEA/aN0XO2fZdlW433u/CKN6fH2j96m8/Zk9KfPiDDJ96ZnzOfudGr+zN6X5lKH0rys0Qh7Z9ov1qT95f6mYNVQI9BgEGFCDhFvOK9pw3w0pPlWz3E+Cxce599PRByjEQwdIgbOD6Z97kCa22wgBkYfIfYyXde0bw66r7XvQlUn2Nmfv2wRIVwV4MOEYnEgEIpACEVTg/bRMsAQ4OThfn730L9jKQsggyxkhCwjCzlZlpFnOSHLuHfPBr66dTUHh4fS84sxZ5sjdoEiwJ3Ax4A7Nl+z2hUPZlilXArjTPxn9e96tNfq1O0f+7tO5fdrvFY3ZOC0c7s7bFtOIabFl4j9XC5OgY7FTRdei49xoRCaJsrb0iR5XQoO1NJEZvdsGLdxxnKAGHweIJadbz3KRc14FzszPb9p/t6S9N4fADa1EsCqlEsZMdukkYF1kHi39WDTzypmeNuPtd2NC8ylxDK+fcTS1WKmj79URr0QeD3w58QAuUatAN5crdWf7OLP13nps/UiYm/Pf0+8AbSY0QzYU49xERrSheEO4s2AxsXhWkb7xmxuHE+z7bN1PJ99/5UnEW8Y9Ezgs2RhOt4nmw13CjH42Erg60yOzNafDvuIN4caN0G2pPPsnvTng+k8/JQSFAMILe93zee7qY5hnuYNx8rCHWD8nsAhzc+WHuPfTyYGyaZqiJQtlV53c5rvHUifR43Ppm1pDlS4v00/A1gd4uwbXzQ/wOsJxccC4YLQaNZOI2gVg08hxF5ZFx5exO8MPo1TwgAhBLIsI4SMLAWx8jwjz3rYXwzyta338W+71qW8rHHf8gK4FfhEEVi95ZrVHnCS5pxKuZSni/tT09eT0mT+WPakics24IlOLv2ROuxYezXwWWIAWaN2Am8GVsyWwEwK+C7gyADWaRw7i+IAMYC1nXhzYO9cCVRJas1n339lIAbQ21HyOAjsWn7DCpM6OogBrA5y7k0vyqH4nYLwsQDPDUUII5lXxWgWVhEKXjh0Ji8ZOo/+lHEVQjaShZVnOXkev9+T9bD2wHZu2fwTHtu/o6lXVtoB4jRgH7E/zPXZMI89dq3BK0mSND0q5dJiYBnwX4gljhMtIWyU/Rzm+FkAzaXRzWXw3VKu+I/AH8yBkjhJkibMHlgdZMPb7jwMfOOcmy7bAuHjxP4sPRQQQuyHVRQxK+uMYj4D9FCkWFQjLhX7YDEyXysCXLxgCVcsfQ63blrNloM7R3pmpf+ylnj38wubPrp6n++CJEmaDpVyqYdYVvbnxNXrJtLIfR+xLGg9cfWmB4jlQ4OMfyO2IGb7NDK7cmKJ8AJGe6gNEO/QN/qhLUpfO8ULgV8H7nbPkSQpMoDVgR5726p7zr3pRX9M4E8pwh8Sit7RBu5wctHHKUU/pB5ZI43bQ5b+nqWywtHG7s8/5QLyLGfF5vtYv287GRQhhB8AnwTu2PTR1cOOvCRJmg6VcmkB8FrgQ8CzJ/CU/cQG3d8Fvk9c4GSI1vuvjA12NRrcn0ksZSsR+7KcR+yt0vjziQpqnQ38BgawJEka92SuDnL+TZcvLgreE0LxviyE0yAwHIa5aPgUXjVU4hQGCFkY6X0VQkaeZeR5T+yFleXkWU6W5/TkPeR5D/X927n7ibWDP3ty/ZfW79123UDeV9/0UUsGJUlS+6Wm3ucD7wX+EzEwdDxrgL8Dvl6t1dfP8O97ErFZ8VnEoNYzgecSV5s8dYbnzrcAb6/W6nvdkyRJMoDV8c678fL+EIrXhhA+AjyrAC4ZXspvDT0tZldlWcq0Gl19MMuy1AMrPvI8J8976Ml76O3pY39x+Dv3Pbnuqo+88bpHHWFJkjQdUqP2S4EPAxWg7zhPGQKqwMeBu6u1+uEO2IYBYobWucSMqCuIAa2TZ+DH/xR4a7VWr7k3SZJkAKsrnHfz5Xle8Nyc7OPz6fmtVxy+IHtWcRocsfrg0QJYGVkWM68aAayent6H87znqpe+4i1VR1aSJE2HlMn0+8AHgadP4CnbiVlX/wvY0omrzVXKpV5iz6yXAH8A/CawZBp/5EZiAOu77lGSJNkDqys8+taVh/kW975h4+/+2eJiXvnCYtG5RYCs0Y49dW2P/a9oWmkwG+mBlcWvg8AXi6K4w1GVJEntlkoGzwH+BHgbsezueB4GrgO+XK3VD3TqtqUVAXcCKyrlUhX47bSNr2B6emWdTixnlCRJdM9SwnoVxSuHLlzz/OGl355PD4ysOgiNINZoM/dxH78EvvSyyltt2C5JkqbDC4G/JgawJhK8+gnwPuDmTg5ejVWt1fdVa/V/Bt5NLHncMg0/po+4UqIkScIAVldZ9q7r9w2HYgUhDIWUXUVT1tXI1yOCWFnKvsqGCeFLWZZtcCQlSVI7Vcqlnkq59GpiGeBrgd4JPG0VMXj1zWqtPtSN252azH+G2KT+kWn4EUtTLzFJkuY8A1hdJsAvAtw7UjTYCGI1lxM+JRMrI4SwBvj2yypvG3QUJUlSu1TKpXnA24H/ATxvgvPLnwPLgTurtXpXZ4ZXa/VDwNeBD9D+INYijt/8XpKkOcEAVpcJIWwOIdxFI+OqKVCVhWzc8kFC+H4WgqsOSpKktqmUS0uI5YLXAU+b4NM2Ap8grjRYzIZxSEG4fyGWEz7Rzqmfe5kkSZEBrC7zjquu3xsI9wU41GiCNRqk4oigVRayFNTKDgH3vOKV79jlCEqSpHZIwav/BlwDnDLBpx0kltzdOluCVw0piPWPwC3A4Ta97CHA3qWSJGEAqzuF8CAhrAs0rz4YRvtfNZUShixAyDZmWfaIAydJktqhUi5dRGzW/k5g3iSe+k/E1QZnZUuDaq2+F/hb4KE2veTGaq1+0D1OkiQDWN0psDaEsJajlwqmrKxUThibvW8KIdvowEmSpKlKwavrgdcD8yfx1PXAF6q1+uOzfIjWAF8B2pFhtt89TpKkyABWF1q27NObQwiPHBG4gqP0vsrSKoTZlhCyrY6cJEmaikq5dA6xf9UVwGRXx7uduPLgrJaaun+XqffC2gPsdK+TJCkygNWlQgi/BPYdrXwwG+mBFUsIQxZ2vLzy1h2OmiRJalWlXFpMXGnvtS3MIbcA36zW6nvmyHCtA1ZO8TW2Ad6AlCQpMYDVtcIjIYRdMfsqZls9pXxwpIl72OZ4SZKkVlXKpUAMXC0D+lt4iQ3Aj+fQkG0H7p/ia2wENrn3SZIUGcDqUiGEB0IIO2KgqhG7amrePhrEOhhC9rgjJkmSpqAMvA9Y1MJzC+ABpl5S1zVSGeHDU3yZx4hBLEmShAGsrhXg0RDCkyO9rkbKBzOyVD6YZRkhC4dCCLsdMUmS1IpKudQPvIkYxGrFIPAg7Wlq3k22AU+2+Nxh4FdzqORSkqTjMoDVpULIDgXCuvjn5tUHj2zgHkK2L4SwxRGTJEktuhD4fSC0+PxhYNccHLchYvCuFVuAf3PXkyRplAGsLhVihtUvsywbbJQPZk29r0IIhCwjhFCEEA47YpIkabKael+d42jMqMeYAys2SpI0GQawulQKTG2EMEQqHzwiAysGr8hCdjgL2QFHTJIktaAfeAnQ51BMWqslk0PAHcyhnmGSJE2EAawuNTw8TAihHgKDjaBV1si+yuLqg6kH1u6QZY86YpIkqQWl9JiqYg6O3TxgoIXn7QZum6NjJknSuAxgdan//IfXFiGEDSGEoSPLBpsysBjpg+UESJIkteI8YOEUX6MHOJfWe2h1q6XASS08725gdbVWd/4mSdKYCYW6VAjZ9hDCoUBz8/ZG+WA2EszKgnFKSZLUkqXA/DbMN5/NHApgVcqlAeD8Fp46BPwfYKe7niRJRzKy0cVCCIMhhDUj2VcpEyuWD6Y/ZzlZ5tssSZJacgaxFG6qzgHOnkPjdjrw3Baedwfwo2qtPuyuJ0nSkYxsdLEARSDsaQ5ejX6NPbAavbAkSZJasBM42IbXORt48Rwat/OA50/yOXuAW6q1ur1LJUk6CiMbXawIYYjYByuWCmapcXvIRpq6x0buvs2SJKklW4D9bXid04CXVcql/tk+YJVyqZe4cuOpk3zq7cC33OUkSTo6IxtdLBCKEMK+RtYVT8nCykeysSRJklqwFdjXpte6HPj1OTBmJwOvY3I9vzYBX6rW6lvd5SRJOjojG9385oVsKAvZlhBCkY0tHcxGM7KyLHewJElSKx4FdrfptZ4BvKFSLi2crYNVKZcCMXj1zEk8bRD4EvCv7m6SJI3PAFYXCxTDIcu2xxUHM7IjMrDyuBphZg8sSZLUss3Amja+3huAl6ZAz2x0MfA2Jrdy453A31Rr9UPubpIkjc/IRhcLWWiUEcbywaYeWKMN3HMzsCRJUqsK4G7a08gd4EzgI8RAz6xSKZcGgLczuTLJ9cCngQ3uapIkHZsBrC72mtd98HDIwmMhC2ShqXl7Ixsry83AkiRJLavW6gXwA2BvG1/2EuDaSrl06mwZp0q5lBFLB98C9E7waU8C1wPfS+MsSZKOwchGt7+BIdsRQlaEbEwD9ywnC4E8y8nyHgdKkiS16kHgrja+XgD+I/AXlXLptG4fnFQO+ZvANcCSCT7tEPBl4MvVWv2gu5gkScdnAKvb38AQRnpfjX5NjzxPJYS+zZIkqWV7gK8Bh9v4mv3AO4CrK+XSkm4dmBS8ugz4FPD0CT5tGLgVuL5aq+9w95IkaWKMbHT9O9goHRwtF8xS8/aQ5SNBLEmSpFZUa/Vh4MfAfW1+6QHgKuC/V8qlX+u2xu6VcikHKsANwH+YxFO/BVxdrdXXuXdJkjRxBrC6XAiB2ANrNPsqBrLyWD6YZf1Zli12pCRJ0hQ8DNxCe7OwAOYBbwRuAn67Ui51Rd+DSrm0CHgz8D+JPb0m6m7gL6q1+hp3KUmSJscAVpcLIRsKIT8QstH+V1mjB1YMZM3L857THSlJktSqaq1+GPgXYOV0TGeIZXifAz5UKZcuTE3RO06lXMor5dLTgU8Cn2HiZYNDwPeB5dVa/V73KEmSJs8AVpfLQ74nC9mjI6sPpvLBPGVhZVlOnufBkZIkSVNRrdUfAr5IXD1vOpwL/CUxG+utlXLp/E7Z9kq5FCrl0rnEkscvA+8CJprhPkwM/r2zWqvf6Z4kSVJrXJ6uyz0182o0cJVlGXmek+f2wJIkSW3xT8DlwFuYnhuhAXgZcCmwslIu/TOxZ9QGoKjW6sVMbWjqyRWAc4AriCsnXgosnMTLHAS+CnwMqLv7SJLUOgNYXS5kTSsQjmninsXgVcgyI1iSJGnqqrX6zkq5dB1QBl44jT9qHrFB+iXAO4HbgNsq5dLPgb3AIWC43QGtVLrYRwxSPYsYuHopcDGwaJIvtxP4O+Cvq7X6JvceSZKmxgBWlwtkwyFkQyFLGVhhpGwwBrPy/KQ8773AkZIkSW2yFriaGJy5cJp/1iLgOcAziWV7deAuYBVwf6Vc2gnsAXYBg9Va/dBEX7gpWLUIOCk9Lib243oZcBEwv8X58oPAp4F/qNbq+9xlJEmaOgNY3S6ErSGEm0LIKiHLnpFl2QUhy0NT+WCWWUMoSZLapFqrF5Vy6Q7gE8Rm5mfM0Jz1JGIw6znErKw9wEPE8sI68HilXNpCzM7aDoyXnbWA0aDVmcDTgPOJAatTiWWDrRoEvgdcD9xRrdWH3WMkSWoPm3vPEves+vqSPO95Zm/fwCV9/QMv6usbuLy/f+C0/oH5B3p7+68++eQLPuMoSZKkdqmUSwuBZcA1xMBPpxgGdqSvR7OQWKLYbhuBm4HPVWv19e4hkiS1lwGsWeaX99/Rk/X0nN7XN3Bh/8C835g3sOBVvX0DKxcsOPsjjo4kSWqnSrm0gBjE+iidFcSaSQeBe4BPAT+wZFCSpOlhAGuW2rDp3tDfM6+nr2/e/N7e/uH588/a7ahIkqR2q5RL/cDrgGuJPaTmimFgHTHr6mZgoyWDkiRNHwNYkiRJmpJKudRDbHz+gfS1b5Zv8mbgX4HPA/dUa/XD7gWSJE0vA1iSJElqi0q5dBHwFuAqYMks3MTdwHeALwI/qtbqZrhLkjRDDGBJkiSpbSrl0nxiFtb7gRfT/dlYw8BOYCXwOeAu4PFqrV74bkuSNHMMYEmSJKmtKuVSBpwGvImYkfVrwECXbcZBYD0xcHUzsBrYa58rSZJODANYkiRJmhYpkHUR8HvAK4EXAAs7/NfeTAxWrQS+ATxQrdWHfDclSTqxDGBJkiRpWqVA1gXEksIK8HLg7A6ai+4F7iYGre4iBrA2WyYoSVLnMIAlSZKkGVEplwKwmBjMej4xK+sy4BSgH+id5l+hAA6lxxPAvcAq4MfABmBrtVY/6DslSVLnMYAlSZKkGVcpl3JgHrAAeC5wKfA8YmbWImB+eswDephcM/iDwBCwLz32AluJQaqfAfcADwG7Gv/XbCtJkjqbASxJkiSdUCkzqzEvnQ+cD5yZHmcQg1xnMbEg1j5gU/q6JT0eJTZkL9IDA1aSJEmSJEmSJEmSJEmSJEmSJEmSJEmSJEmSJEmSJEmSJEmSJEmSJEmSJEmSJEmSJEmSJEmSJEmSJEmSJEmSJEmSJEmSJEmSJEmSJEmSJEmSJEmSJEmSJEmSJEmSJEmSJEmSJEmSJEmSJEmSJEmSJEmSJEmSJEmSJEmSJEmSJEmSJEmSJEmSJEmSJEmSJEmSJEmSJEmSJEmSJEmSJEmSJEmSJEmSJEmSJEmSJEmSJEmSJEmSJEmSJEmSJEmSJEmSJEmSJEmSJEmSJEmSJEmSJEmSJEmSJEmSJEmSJEmSJEmSJEmSJEmSJEmSJEmSJEmSJEmSJEmSJEmSJEmSJEmSJEmSJEmSJEmSJEmSJEmaXf4/csr6ZeIf3GYAAAAldEVYdGRhdGU6Y3JlYXRlADIwMjUtMDUtMTdUMDU6Mzc6MzcrMDA6MDAu+di4AAAAJXRFWHRkYXRlOm1vZGlmeQAyMDI1LTA1LTE3VDA1OjM3OjM3KzAwOjAwX6RgBAAAABl0RVh0U29mdHdhcmUAQWRvYmUgSW1hZ2VSZWFkeXHJZTwAAAAASUVORK5CYII=;" parent="qm2k_FCWnXqwcVjh3l4h-1" vertex="1">
          <mxGeometry x="310.8532495874807" y="166.83342502910804" width="84.45556324408722" height="28.154220116747396" as="geometry" />
        </mxCell>
        <mxCell id="OCyMKSeDgme2RKEGwc1d-22" style="edgeStyle=orthogonalEdgeStyle;rounded=0;orthogonalLoop=1;jettySize=auto;html=1;entryX=0.5;entryY=0;entryDx=0;entryDy=0;entryPerimeter=0;" parent="qm2k_FCWnXqwcVjh3l4h-1" source="OCyMKSeDgme2RKEGwc1d-10" target="OCyMKSeDgme2RKEGwc1d-20" edge="1">
          <mxGeometry relative="1" as="geometry">
            <Array as="points">
              <mxPoint x="283.174535583116" y="122.82968895940226" />
            </Array>
          </mxGeometry>
        </mxCell>
        <mxCell id="OCyMKSeDgme2RKEGwc1d-23" value="stores" style="edgeLabel;html=1;align=center;verticalAlign=middle;resizable=0;points=[];" parent="OCyMKSeDgme2RKEGwc1d-22" vertex="1" connectable="0">
          <mxGeometry x="-0.1711" y="1" relative="1" as="geometry">
            <mxPoint x="2" y="-9" as="offset" />
          </mxGeometry>
        </mxCell>
        <mxCell id="OCyMKSeDgme2RKEGwc1d-38" style="edgeStyle=orthogonalEdgeStyle;rounded=0;orthogonalLoop=1;jettySize=auto;html=1;entryX=0;entryY=0.5;entryDx=0;entryDy=0;startArrow=classic;startFill=1;" parent="qm2k_FCWnXqwcVjh3l4h-1" source="OCyMKSeDgme2RKEGwc1d-24" target="OCyMKSeDgme2RKEGwc1d-37" edge="1">
          <mxGeometry relative="1" as="geometry">
            <Array as="points">
              <mxPoint x="92.26238001454905" y="452.93447803779577" />
              <mxPoint x="184.5247600290981" y="452.93447803779577" />
              <mxPoint x="184.5247600290981" y="571.9257392172167" />
            </Array>
          </mxGeometry>
        </mxCell>
        <mxCell id="OCyMKSeDgme2RKEGwc1d-39" value="uses" style="edgeLabel;html=1;align=center;verticalAlign=middle;resizable=0;points=[];" parent="OCyMKSeDgme2RKEGwc1d-38" vertex="1" connectable="0">
          <mxGeometry x="0.2347" relative="1" as="geometry">
            <mxPoint x="15" y="-30" as="offset" />
          </mxGeometry>
        </mxCell>
        <object placeholders="1" c4Name="Trafficformer Bizkaia" c4Type="Application" c4Technology="Python, UV, Pytorch, Jupyter" c4Description="DL model training platform" label="&lt;font style=&quot;font-size: 16px&quot;&gt;&lt;b&gt;%c4Name%&lt;/b&gt;&lt;/font&gt;&lt;div&gt;[%c4Type%:&amp;nbsp;%c4Technology%]&lt;/div&gt;&lt;br&gt;&lt;div&gt;&lt;font style=&quot;font-size: 11px&quot;&gt;&lt;font color=&quot;#E6E6E6&quot;&gt;%c4Description%&lt;/font&gt;&lt;/div&gt;" id="OCyMKSeDgme2RKEGwc1d-24">
          <mxCell style="shape=hexagon;size=50;perimeter=hexagonPerimeter2;whiteSpace=wrap;html=1;fixedSize=1;rounded=1;labelBackgroundColor=none;fillColor=#23A2D9;fontSize=12;fontColor=#ffffff;align=center;strokeColor=#0E7DAD;metaEdit=1;points=[[0.5,0,0],[1,0.25,0],[1,0.5,0],[1,0.75,0],[0.5,1,0],[0,0.75,0],[0,0.5,0],[0,0.25,0]];resizable=0;" parent="qm2k_FCWnXqwcVjh3l4h-1" vertex="1">
            <mxGeometry x="21.291318464895937" y="284.0436557186177" width="200" height="170" as="geometry" />
          </mxCell>
        </object>
        <mxCell id="OCyMKSeDgme2RKEGwc1d-25" style="edgeStyle=orthogonalEdgeStyle;rounded=0;orthogonalLoop=1;jettySize=auto;html=1;entryX=0.5;entryY=0;entryDx=0;entryDy=0;entryPerimeter=0;exitX=0;exitY=0.75;exitDx=0;exitDy=0;exitPerimeter=0;" parent="qm2k_FCWnXqwcVjh3l4h-1" source="OCyMKSeDgme2RKEGwc1d-20" target="OCyMKSeDgme2RKEGwc1d-24" edge="1">
          <mxGeometry relative="1" as="geometry" />
        </mxCell>
        <mxCell id="OCyMKSeDgme2RKEGwc1d-26" value="ingests MobilitySnapshot &amp;amp; Meter data" style="edgeLabel;html=1;align=center;verticalAlign=middle;resizable=0;points=[];" parent="OCyMKSeDgme2RKEGwc1d-25" vertex="1" connectable="0">
          <mxGeometry x="0.0066" y="-1" relative="1" as="geometry">
            <mxPoint x="-2" y="15" as="offset" />
          </mxGeometry>
        </mxCell>
        <mxCell id="OCyMKSeDgme2RKEGwc1d-29" value="" style="verticalLabelPosition=bottom;html=1;verticalAlign=top;align=center;strokeColor=none;fillColor=#00BEF2;shape=mxgraph.azure.computer;pointerEvents=1;" parent="qm2k_FCWnXqwcVjh3l4h-1" vertex="1">
          <mxGeometry x="288.8522205070882" y="376.1659224381694" width="106.45659232447969" height="92.12226671955167" as="geometry" />
        </mxCell>
        <mxCell id="OCyMKSeDgme2RKEGwc1d-30" value="" style="shape=image;verticalLabelPosition=bottom;labelBackgroundColor=default;verticalAlign=top;aspect=fixed;imageAspect=0;image=https://upload.wikimedia.org/wikipedia/commons/b/b9/Nvidia_CUDA_Logo.jpg;" parent="qm2k_FCWnXqwcVjh3l4h-1" vertex="1">
          <mxGeometry x="295.9493266620535" y="383.842777998132" width="93.69599545785206" height="56.7768492397225" as="geometry" />
        </mxCell>
        <mxCell id="OCyMKSeDgme2RKEGwc1d-31" style="edgeStyle=orthogonalEdgeStyle;rounded=0;orthogonalLoop=1;jettySize=auto;html=1;entryX=0;entryY=0.5;entryDx=0;entryDy=0;entryPerimeter=0;" parent="qm2k_FCWnXqwcVjh3l4h-1" source="OCyMKSeDgme2RKEGwc1d-24" target="OCyMKSeDgme2RKEGwc1d-1" edge="1">
          <mxGeometry relative="1" as="geometry">
            <Array as="points">
              <mxPoint x="237.0433455758414" y="314.7510779584682" />
              <mxPoint x="237.0433455758414" y="274.06374349066624" />
            </Array>
          </mxGeometry>
        </mxCell>
        <mxCell id="OCyMKSeDgme2RKEGwc1d-33" value="can train" style="edgeLabel;html=1;align=center;verticalAlign=middle;resizable=0;points=[];" parent="OCyMKSeDgme2RKEGwc1d-31" vertex="1" connectable="0">
          <mxGeometry x="-0.5036" y="-2" relative="1" as="geometry">
            <mxPoint x="40" y="-57" as="offset" />
          </mxGeometry>
        </mxCell>
        <mxCell id="OCyMKSeDgme2RKEGwc1d-32" style="edgeStyle=orthogonalEdgeStyle;rounded=0;orthogonalLoop=1;jettySize=auto;html=1;entryX=0;entryY=0.5;entryDx=0;entryDy=0;entryPerimeter=0;" parent="qm2k_FCWnXqwcVjh3l4h-1" source="OCyMKSeDgme2RKEGwc1d-24" target="OCyMKSeDgme2RKEGwc1d-29" edge="1">
          <mxGeometry relative="1" as="geometry">
            <Array as="points">
              <mxPoint x="212.91318464895937" y="391.51963355809465" />
              <mxPoint x="212.91318464895937" y="422.2270557979452" />
            </Array>
          </mxGeometry>
        </mxCell>
        <mxCell id="OCyMKSeDgme2RKEGwc1d-34" value="trains" style="edgeLabel;html=1;align=center;verticalAlign=middle;resizable=0;points=[];" parent="OCyMKSeDgme2RKEGwc1d-32" vertex="1" connectable="0">
          <mxGeometry x="0.4145" y="2" relative="1" as="geometry">
            <mxPoint x="-10" y="-8" as="offset" />
          </mxGeometry>
        </mxCell>
        <mxCell id="OCyMKSeDgme2RKEGwc1d-36" value="" style="shape=image;verticalLabelPosition=bottom;labelBackgroundColor=default;verticalAlign=top;aspect=fixed;imageAspect=0;image=https://miro.medium.com/v2/resize:fit:700/0*Ev_4QnYTqOQJysYJ.png;" parent="qm2k_FCWnXqwcVjh3l4h-1" vertex="1">
          <mxGeometry y="545.0567447573475" width="118.5216727879207" height="50.79398875108674" as="geometry" />
        </mxCell>
        <mxCell id="OCyMKSeDgme2RKEGwc1d-37" value="" style="shape=image;verticalLabelPosition=bottom;labelBackgroundColor=default;verticalAlign=top;aspect=fixed;imageAspect=0;image=https://saturn-public-assets.s3.us-east-2.amazonaws.com/example-resources/wandb.png;" parent="qm2k_FCWnXqwcVjh3l4h-1" vertex="1">
          <mxGeometry x="205.81607849399407" y="545.0567447573475" width="194.18392150600593" height="49.67974308475719" as="geometry" />
        </mxCell>
      </root>
    </mxGraphModel>
  </diagram>
</mxfile>
